<?xml version="1.0" encoding="UTF-8"?><svg id="Layer_1" xmlns="http://www.w3.org/2000/svg" viewBox="0 0 3338.04 699.27"><path d="M1704.06,320.66c20.33,16.1,36.2,47.34,39.27,73.33,3.34,28.37,3.77,59.16,2.91,87.95-.21,6.87.16,41.83-4.32,44.89-4.72.43-9.54,2.06-14.25,2.29-19.12.95-35.4,1.83-54.57,1.15-16.47-.58-35.94,4.99-36.08-18.57-.07-13.04.32-28.28-1.63-41.73-.23-1.6.04-12.73-.12-14.81-.8-10.45-3.75-16.08-8.21-19.11-10.16-8.54-18.41-11.53-31.72-8.17-7.68,1.94-9.92,8.29-11.45,15.4-4.35,20.25-2,44.91-1.69,65.57.17,10.92,6.08,20.64-9.25,26.41-7.81,2.94-33.5,1.15-43.63,1.1-10.68-.06-14.22.19-25.46-1.26-4.02-.52-11.4,1.56-16.56-3.01-2.97-2.64-1.46-13.42-1.88-17.69-.62-6.45-1.49-12.46-1.52-17.5-.06-9.54-1.16-22.21-1.43-32.88-.96-38.83-3.91-78.52-.04-117.76.46-4.65,4.4-30.93,5.95-32.84,5.12-6.32,15.46-5.94,21.97-7.03,15.79-2.64,45.22-5.57,60.09-.5,13.17,4.5,10.76,37.18,9.07,48.48,1.61-2.68,2.24-5.04,3.14-6.36,6.32-9.18,12.71-23.78,21.25-30.9,26.61-22.18,73.8-17.35,100.16,3.52Z" fill="#FF4612"/><path d="M1956.87,459.22c-5.89-5.43-6.5,14.58-7.45,21.97-3.91,30.26-16.25,40.59-21.03,43.94-7.69,5.37-33.82,12.7-43.47,13.36-93.95,6.45-107.04-63.84-110.77-141.12-.53-11.01-1.48-69.05,3.11-74.22,3.39-1.95,10.73-3.86,14.36-3.76,3.14.08,20.64-.94,22.9-.96,19.23-.16,27.1-1.7,46.04-.33,17.8,1.29,11.94,13.58,11.62,20.03-.27,5.26-.87,12.49-.55,18.58.68,12.82.83,26.84,1.02,39.6.26,17.72,5.45,25.17,6.15,26.32,5.25,8.55,21.52,2.13,23.25-7.12l2.2-81.05c1.13-13.48,5.26-18.1,17.09-19.45,11.68-1.33,32.83-2.37,44.52-1.61,7.27.47,31.7,4.18,34.75,8.68,4.57,6.74,4.65,19.03,5,26.34.96,20.13,1.83,51.74,6.5,70.79,3.82,15.57,22.46,19.64,25.89,4.41,4.6-20.47,4.63-57.64,4.12-79.1-.16-6.87-2.92-16.13,3-23.17,2.06-2.44,14.1-2.73,17.07-3.14,10.89-1.5,44.26-1.61,55.57-.68,20.43,1.68,23.4,18.23,25.63,35.31,4.59,35.22,4.55,120.32-6.8,153.19-3.92,11.36-22.62,26.4-34.72,28.21-8.38,1.26-25.02,1.87-34.29,2.24-33.2,1.32-79.23,2.55-96.57-31.47-6.86-13.46-8.43-31.34-14.14-45.77Z" fill="#FF4612"/><path d="M3044.23,323.66c6.06,6.09,2.07,46.39,6.43,57.52,6.86,17.52,48.83,21.4,47.95,1l1.08-50.89c.02-1.05.81-1.92,1.86-2.03l48.14-5.48c9.82-.25,16.46-.03,23.99-.55,2.26-.16,18.4,1.84,24.3,3.16,1.26.28,2.14,1.38,2.22,2.67.65,11.26,3.94,23.04,4.66,33.92,2.3,34.81-1.04,75.84-1.94,111.39-.39,15.29,2.1,38.73.04,52.71-2.54,17.28-15.74,11.32-25.36,11.39-20.21.15-40.6.52-60.76,1.93-6.61-2.74-12.31-5.34-13.37-13.04-2.92-21.27,10.04-57.64-12.79-71.44-5.76-3.48-22.46-1.18-28.28,1.72-22.64,11.28-4.27,72.12-14.99,78.91-6.09,3.85-42.24,1.62-52.51,1.79-27.53.47-40.61,13.71-43.54-23.3-1.57-19.85.02-41.13-.23-60.67-.4-31.53-2.64-67.98-1.79-99.8.18-6.69.83-27.83,6.05-30.41,7.33-3.62,38.26-1.48,50.12-1.73,3.78-.08,13.35-1.2,17.97-1.39,3.41-.14,19.04.91,20.74,2.62Z" fill="#FF4612"/><path d="M2370.37,329.8c1.19,1.09,12.9,20.6,14.22,23.34,10.02,20.71,8.89,37.65,13.23,57.86,6.91,32.16,16.51,66.02,21.34,98.4.19,1.3,6.92,24.31-5.57,23.99-7.95,3.24-27.1,2.14-33.51,2.03-15.89-.29-32.86,6.2-40.38-11.19-1.67-3.87-2.87-10.34-4.28-14.26-6.52-18.14-10.56-19.58-30.37-20.38-7.88-.32-26.31-.15-33.97.79-28.96,3.55-13.6,22.93-18.3,38.49-2.88,9.55-17.85,5.28-23.02,5.57-12.25.69-46.25,5.52-54.79-2-4.31-3.8-5.04-19.19-4.85-25.19.82-25.76,8.14-68.85,12.3-95.5,5.61-35.9,6.95-67.76,40.96-86.95,23.73-13.39,66.36-19.25,93.27-15.36,9.64,1.39,34.99,3.14,53.72,20.37ZM2293.33,366.21c-23.13,2.98-31.22,18.92-24.99,40.3,9.5,32.56,54.49,18.17,56.78-5.85.3-3.09-.54-12.23-1.35-15.1-2.92-10.4-20.36-20.64-30.44-19.34Z" fill="#FF4612"/><path d="M2908.27,323.63c7.72,16.75,3.82,35.43,3.26,53-.59,18.41,7.58,25.37-18.04,27.74-18.36,1.7-71.73-2.72-84.31,9.59-7.43,7.27-3.98,30.16,3.29,37,13.83,12.99,54.1,6.93,72.58,6.99,7.71.02,15.7-.67,22.46-.56,20.93.34,13.12,12.32,13.35,24.87.32,17.03,7.12,36.56-1.97,53.12-4.62,4.81-39.07,2.59-47.79,2.95-29.36,1.2-63.97,3.99-93.33,2.19-2.66-.16-21.34-2.92-23.32-2.99-24.79-.9-37.06-17.28-39.11-19.31-.69-.68-9.85-14.61-10.68-16.25-9.91-19.54-9.51-42.59-9.01-64.05.37-15.75,2.51-52.77,8.52-66.61,5.92-13.63,31.22-36.54,44.8-42.49,26.82-11.75,99.64-12,130.21-9.62,3.67.29,10.25.56,13.94.68,5.45.16,8.82-1.56,15.14,3.75Z" fill="#FF4612"/><path d="M2597.72,535.9c-4.97,4.84-32.62,2.98-40.81,2.84-14.1-.24-30.5.85-44.8-2.5s-14.4-10.07-15.44-23.13c-1.49-18.62,2.53-43.25-.06-60.86-.26-1.79-.91-8.02-5.78-18.12-5.64-11.72-25.81-10.82-31.97-11.28-11.95-.89-31.27,8.37-36.3-8.2-2.98-9.82.24-21.06,0-30.88-.23-9.63-.85-19.05-.83-29.22.02-10.96-3.55-15.11,6.89-25.55,9.49-9.49,29.44-6.77,39.77-6.93,54.54-.86,89.93.92,144.82,1.35,12.61.1,35.19.09,46.79,1.89,14.28,2.21,16.92,17.36,17.16,29.56.08,4-.11,8.32-.05,12.46.17,12.44,2.77,47.67-11.29,52.94-20.27,7.6-50.86-6.7-60.51,26.8-3.56,12.34-6.52,38.2-7.18,51.68-.36,7.46,2.75,34.09-.41,37.16Z" fill="#FF4612"/><path d="M882.56,406.14c3.18-.42,7.85,2.56,10.48,4.01,23.58,12.97,32.85,51.08,27.7,75.96-11.63,56.13-79.5,49.9-124.11,49.51-27.32-.24-55.83-1.77-82.23-2.68-10.16-.35-24.07,1.66-28.1-10-1.57-4.55-.99-17.25-1.11-21.29-1.68-59.61.25-90.78-.53-150.68-.04-2.72.89-23.58.83-27.03-.06-3.63,1.97-17.37,4.61-19.36,2.34-1.76,15.04-3.63,18.62-3.87,3.08-.21,19.21-.49,22.09-.67,22.42-1.4,31.11-1.52,52.63-2.14,32.76-.94,66.22-1,92.81,20.16,18.46,14.7,29.72,50.73,20.61,72.58-2.74,6.57-6.36,11.27-14.31,15.52ZM808.85,388.33c1.28-1.69,7.49-17.43,7.49-19.4-.01-17.64-26.5-30.19-41.22-18.09-8.1,6.65-12.08,25.14-5.44,33.58,3.14,3.99,17.38,10.1,22.53,10.39,4.36.25,14.15-3.18,16.64-6.48ZM814.91,445.82c-3.09-2.94-21.01-7.62-25.55-7.33-4.22.27-13.89,5.2-16.5,8.54-2.71,3.46-5.67,18.79-5.04,22.74.52,3.25,9.41,15.28,12.35,17.5,9.14,6.9,29.8,5.86,36.59-3.77,2.92-4.15,6.47-17.46,6.02-22.38-.23-2.56-6.27-13.78-7.87-15.3Z" fill="#FF4612"/><path d="M1046.78,442.91c-.34.21-4.42,6.05-4.59,6.61-2.42,8.34,2.95,11.09,10.02,12.88,17.71,4.48,64.88,2.01,85.58,1.89,17.27-.1,24.98-7.77,26.39,17.66.37,6.67-2.02,45.5-4.41,49.4-1.22,1.99-4.98,4.01-7.33,4.32-6.29.83-18.84-.49-26.07-.14-39.58,1.93-114.11,7.43-149.92-7.45-3.68-1.53-12.59-6.01-15.11-8.75-12.05-13.14-11.77-25.62-13.82-41.37-4.84-37.29-14.45-118.38,15.29-146.69,1.9-1.81,5.8-5.99,6.75-6.84,9.55-8.49,11.7-9.65,29.31-13.73,8.15-1.89,27.25-4.88,35.06-5.01,11.13-.18,24.67,1.36,37.07,1.11,22.83-.46,47.24-4.05,70.13,2.68,29.02,8.53,31.25,34.29,33.43,60.65,1.1,13.29,2.73,47.71-1.9,59.25-1.1,2.74-5.66,8.46-8.44,9.44-.9.32-12.25,1.28-13.2,1.27-2.9-.04-11.07-.24-13.32-.3-25.54-.67-45.44-.83-71.04.83-4.28.28-15.2-.64-19.89,2.29ZM1105.59,389.88c4.97-4.92.41-19.65-6.61-21.68-2.32-.67-17.26-1.9-20.55-1.91-6.49-.01-25.02,1.72-30.45,3.98-1.7.71-5.26,2.89-5.85,4.58-3.44,22.74,13.52,21.86,30.38,21.45,5.24-.13,19.51-.75,23.76-1.58.52-.1,8.94-4.47,9.31-4.84Z" fill="#FF4612"/><path d="M1424.82,330.68c3.23,4.94,9.42,24.59,11.33,31.21,12.95,44.86,14.47,73.59,15.62,119.21.28,11.18,5.16,38.32-3.33,46.09-6.61,6.05-21.65,4.34-28.12,4.66-16.26.81-25.62,3.15-41.64-2.07-2.68-.87-3.93-2.95-5.15-5.29-3.58-6.9-3.42-18.19-5.68-25.64-4.47-14.7-6-19.44-22.35-20.9-8.64-.77-27.08-.94-35.68-.07-16.07,1.62-21.53,7.99-24.45,23.38-1.53,8.07-.11,21.34-2,27.84-.54,1.86-2.84,3.64-4.58,4.37-3.63,1.52-42.5,2.99-49.61,2.71-5.65-.22-16.72-1.02-21.96-1.93s-9.15-3.83-9.99-9.41c1.56-31.1,2.68-61.27,6.03-92.3,2.68-24.84,8.11-78.12,20.14-99.19,6.8-11.91,15.73-16.19,28.15-21.06,17.96-7.05,24.94-6.13,43.21-7.48,15.11-1.11,32.16-2.72,47.79-2.6,17.33.13,49.94,7.35,65.87,14.33,7.97,3.5,8.81,3.37,13.34,9.44.73.98,2.63,4.03,3.06,4.69ZM1323.56,357.49c-9.32,1.35-24.17,13.59-26.14,23.06-3.69,17.8,6.87,31.81,23.51,36.95,23.05,7.11,48.17-22.5,33.44-43.9-7.21-10.48-17.66-18.01-30.82-16.11Z" fill="#FF4612"/><path d="M330.02,645.05s-1.47-2.63-1.66-4.5c-1.37-12.99,2.39-26.06,4.05-38.77,2.12-16.28,3.92-32.94,5.19-49.27,2.29-29.53-4.26-50.8-14.2-78.12-2.15-5.91-4.82-16.72-7.79-21.83-.94-1.61-7.82-3-9.66-7.68-.79-1.99.42-3.85.26-5.88-.22-2.89-8.08-22.18-9.9-23.14-6.1.53-9.61,6.35-13.55,10.37-2.53,2.58-6.15,5.74-8.38,8.48-1.54,1.89-2.52,5.55-4.62,6.55-3.73,1.76-9.14-4.61-12.99-4.81-13.86,8.4-27.93,17.49-43.67,22.09-9.36,2.74-18.41,2.33-27.8.17-17.91-4.12-39.35-10.54-56.91-16.28-6.83-2.24-17.79-9.85-24.44-5.06-.37.26-4.83,5.44-5.34,6.17-4.89,6.92-9.66,16.79-14.3,24.36-1.76,2.88-5.38,10.84-7.24,12.5-7.46,6.64-16.92-.02-18.18-8.74-1.01-6.96,2.82-24.02,3.89-31.88,1.68-12.36.22-29.36,12.9-36.46,5.83-3.26,6.36-1.32,11.36-1.71,19.71-1.53,39.43-4.11,58.43-6.62,9.14-1.2,18.38-2,27.5-3.34l-2.46-7.04c-.37-3.53,7.89-11.77,10.2-15.24,5.76-8.66,12.71-19.25,17.89-28.17,10.72-18.43,16.09-37.97,23.5-57.11,3.72-9.62,5.66-24.65,7.69-35.09,1.21-6.25,3.1-12.2,2.8-18.64-3.45-1.91-6.33-4.66-9.58-6.83-5.86-3.92-9.81-4.72-14.22-11.28-3.48-5.17-4.15-11.34-2.53-17.23,1.5-5.48,5.61-9.13,8.52-13.69,9.77-15.3,19.53-31.21,30.94-45.56,7.14-8.98,21.77-26.43,31.93-31.41,14.36-7.03,42.96-2.22,59.36-.65,8.62.83,16.73,4.45,25.3-.2,1.95-1.06,7.57-7.37,7.84-9.45,1.25-9.7,5.16-14.92,10.16-23.55,2-3.45,2.76-5.39,4.47-8.69,2.22-4.26,7.3-7.32,11.79-8.77,15.84-5.09,38.93-.83,52.62,7.48.54.33,2.83,3.83,2.98,4.47,1.16,4.75-4.36,10.08-6,14.65-3.56,9.96-5.35,32.94-15.84,37.63-3.18,1.42-20.53,2.17-22.69.48-1.29-1.01-1.84-3.67-.37-4.64l3.32-.38c-2.37-2.57-2.08-4.27,1.64-4.1l-.66,2.91c.44.82.83,1.12,1.79,1.15,2.07.08,12.99-3.87,14.46-5.33,2.18-2.18,6.32-13.89,7.35-17.32.86-2.84,4.2-14.98,2.99-16.82-1.15-1.73-16.02-3.5-18.82-4.85-9.54-.07-5.59,7.16-10.4,11.87-6.79,6.65-8.61-7.32-16.88-2.07-5.45,3.46-5.1,12.55-7.38,15.64-.56.75-2.84,1.22-4.16,2.42-2.89,2.63-5.13,8.17-9.36,11.2-10.83,7.78-45.69,1.96-59.79,1.5-9.64-.31-21.37-1.33-30.07,3.2-12.82,6.67-26.38,24.79-35.15,36.41-1.88,2.49-3.59,7.19-5.38,9.42-8.04,10.02-18.18,20.52-22.9,33.03-3.78,10-2.06,15.81,5.69,22.92,1.56,1.43,11.41,8.96,12.76,9.52,1.67.69,3.02-.7,4.06-.08.85.51,3.45,4.39,5.36,5.39s.49-1.69.57-1.95c1.09-3.46,4.49.19,1.47,2.76,6.55,3.25,13.8,4.54,20.73,6.83,16.47,5.44,28.54,9.98,45.87,12.92-2.59-4.56,5.58-4.59,1.22,0h-1.22c.1.02.37,1.07,1.58,1.26,1.04.17,6.35.54,6.64.38.06-.03-.52-.91-.35-1.22,2.99-5.51,2.27,2.18,2.78,2.48l5.8,1.22c-1.09-4.48,4.62-2.14,2.39-.49-.66.49-1.83.14-1.56,1.3,4.98.99,10.15,1.52,15.12,2.57,4.51.95,8.64,1.75,13.01,2.54,3.22.59,16.61,4.1,18.59,2.96.66-.38.53-2.92,2.62-2.3l-.82,3.28c3.75.27,8.19.36,11.86.9,3.43.5,8.54,4.37,8.74-1.69,3.56,2.93,11.77-7.25,10.64-9.07-4.54,1.13-2.66-6.07,1.64-.82l2.07-8.22-2.45,1.64c-1.06-.8-1.53-1.48-1.24-2.87.55-2.69,3.3,1.24,4.1.4-.85-9.15-9.82-15-18.39-10.59-2.49,1.28-4.52,4.73-6.29,6.03-4.98,3.67-9.15,5.32-15.01,2.73-4.53-2-9.67-5.96-13.81-8.39-24.25-14.24-50.47-32.58-75.16-45.74-4.02-2.15-8.43-3.33-12.62-5.05-1.87-7.03,8.88-2.47,11.33-3.54,1.94-.85,2.4-3.96,3.68-5.44.49-.57,4.67-4.32,5.4-4.88-.34.34-4.34.8-3.28-2.05,1.18-3.18,4.63.7,3.28,2.05,1-.77,3.72-2.52,4.93-3.29-.61.6-3.34.39-2.46-2.05,1.02-2.85,3.53.98,2.46,2.05.65-.41,3.98-1.48,4.11-1.66.24-.34-3.34-2.87-.4-4.09,2.96-1.23,1.8,2.25,2.05,2.46,3.27-.17,3.15-2.42,2.47-4.93,2.51-1.38,3.46,2.05,4.51,1.63,2.91-1.15.94-4.6,1.25-4.93l4.5,1.65c2.06-1.12-.7-3.95,1.67-4.93,2.28-.95,1.64,1.75,3.22,1.7,5.11-.14,9.75-3.51,14.11-4.11s10.94.8,14.59-.08c.65-.16.56-1.63,1.01-1.68,1.6-.19,2.62,1.37,4.11,1.65,2.65.49,6.18.3,8.99.9,1.17-.29-.7-2.79,1.65-2.51,3.25.39,1.15,3.08,1.27,3.25.19.28,4.74,1.27,5.72,1.69,0-3.24,3.26-3.28,3.28,0h-3.28c5.84,2.57,18.19,8.03,15.17,16.42-1.48,4.11-13.61,8.37-17.89,10.9-9.56,5.64-19.03,14.06-25.1,23.43-4.95,7.64-7.32,10.94,1.91,15.88.85,0,2.8-7.99,3.56-9.59,3.06-6.43,16.06-19.8,21.93-24.13,9.87-7.29,30.25-18.17,39.07-4.54,6.19,9.56,7.71,25.06,5.54,36.01-1.14,5.78-6.9,13.14-.2,17.07,2.23-4.24,6.54-.34,1.3,2.01.45,2.7,3.25,10.06,3.07,12.18-.04.46-2.5,8.17-2.79,8.79-.73,1.59-3.28,3.92-4.46,5.41,4.95,1.98.77,6.2-1.23,1.23-2.19.93-1.73,4.47-2.87,5.41-.54.45-1.9-.29-2.52-.01-1.53.67-2.18,4.47-2.42,6.12l2.86-.84c1.91,4.03-2.17,2.51-2.9,2.93-1.69.97-1.73,6.15-2.32,8.31-3.51,12.88-11.21,33.38-11.54,46.05-.24,9.19,5.03,20.37,6.98,30.01,4.59,22.72,12.23,48.31,15.41,70.81.96,6.8-.47,10.56-6.93,13.56,2.11,5.52.59,11.82,1.07,16.98.18,1.9,1.81,5.6,2.04,8.66,1.29,17.31.1,24.59-5.46,40.92-9.38,27.54-22.8,55.7-31.05,83.29-1.66,5.55-1.65,9.34-1.8,14.86,2.19,1.68,5.43,2.83,7.54,4.22,2.51,1.65,8.67,6.82,11.74,7.39,7.68,1.42,16.22-3.62,19.24,7.08,2.13,7.56.1,11.87-6.34,15.75l-21.56,4.35c-11,1.67-12.25,1.47-23.85.92,0,0-18.96-1.31-29.6-4.21ZM247.77,236.23l-4.9-1.7c-1.65,9.09-4.34,18-6.34,27.01-1.41,6.34-3.93,15.14-4.76,21.13-.12.83-.39,7.64-.28,8.03,1.17,4.21,9.53,2.95,12.98,5.16,2.22,1.43,4.86,6.37,8.51,8.76,2.95,1.94,7.91,3.86,11.3,5.15,1.32.5,5.11,1.02,5.54,1.45.36.36,1.15,4.62,2.27,6.37,11.13,17.35,48.36,9.92,64.83,5.71,3.86-.99,11.76-4.84,14.88-4.86,4.17-.02,8.82,3.09,12.53,3.93,2.02.46,4.15-.04,6.19.39,2.84.6,11.55,4.03,13.02,1.71l1.64-12.9-2.53-2.58c3.67-2.77,3.78-4.69,2.5-8.99.34-1.31,6.1-.16,4.96-5.69-.07-.34-6.37-4.28.75-3.02l1.72-5.3-2.52-2.51c3.14-1.9,4.87-1.7,4.1-6.18-.88-1.2-13.84,14.98-15.08,16.16-19.41,18.63-62.35,33.93-88.86,29.01-5.77-1.07-20.96-8.17-13.67-15.2,1.22-1.18,13.85-4.6,17.05-5.97,17.12-7.37,32.11-22.37,41.35-38.41-.08-1.45-8.01-1.71-9.84-1.7-8.28,18.23-29.33,37.22-49.14,41.39-10.57,2.23-25.19-1.32-28.62-12.91-.94-3.16-1.28-15.55-2.01-16.51-.19-.25-6.05,2-1.96-3.13l1.96.67c-1.61-6.03.67-11.85.55-17.7-.02-1.23-1.31-2.21-1.31-3.27,0-1.54,1.55-3.1,1.84-4.71.49-2.72.02-5.92,1.37-8.83ZM310.48,372.93c-3.92,3.78,2.98,9.58,7.25,5.19.94-.97,1.2-2.71,2.06-3.69,4.46-5.05,6.7-4.82,6.01-12.7-.75-8.57-7.93-11.72-.69-20.65,2.64-3.26,5.7-3.65,8.13-6.72-2.18-6.1-8.97-4.05-13.67-2.1-12.74,5.29-15.37,20.27-25.46,27.18-1.13.78-6.24,3.38-7.34,3.44-2.35.12-4.27-2.88-6.95-2.14-4.12,1.14-4.25,8.16-.35,8.75,3.13.48,4.55-1.96,6.95-2.94,5.78-2.35,10.49-3.51,15.14-8.71,7.01-7.85,10.21-20.57,22.7-22.94-4.64,5.02-7.67,10.51-6.52,17.63.72,4.45,5.14,7.06,3.52,12.64-2.27,7.84-8.56,5.61-10.78,7.75ZM199.54,387.3c2.82,3.18,7.16,3.36,10.85,4.9.44,0,7.5-3.91,7.8-4.23.82-.88,3.35-9.26,3.25-10.66-.3-4.29-5.45-9.04-9.24-10.5-9.05-3.49-20.23,11.97-12.67,20.49ZM223.95,441.03c.67-.36,3.15-.64,3.29-.84.55-.8-1.7-3.28.43-4.1l4.08,1.65,2.04-3.79c4.76,1.31,3.62-.69,5.19-1.74,1.39-.93,5.38.18,4.71-2.69l-21.67-10c-2.12-2.15-3.79-3.33-6.86-3.83l-31.24-18.14c-1.45-.12-2.04,1.8-3.3,2.18-11.77,3.57-23.98,4.28-36.22,4.91-17.89.92-35.97,1.92-53.48,4.13-9.3,1.17-16.27-1.28-18.67,11.27-1.82,9.51-2.27,21.74-3.79,31.99-1.16,7.79-5.61,16.49-1.58,23.99,5.38,1.03,5.92-6.68,6.78-7.68.47-.55,4.39-1.36,5.58-4.7-.96-1-2.94-.8-2.46-2.87,5.58.04,6.47-2.43,4.47-7.42.78-1.84,4.98-.02,6.2-4.53.64-2.34-3.75.09-2.44-3.26,1.12-2.88,3.48.38,3.69.39.75.02,2.34-3.98,2.55-4.84.14-.57.45-1.1.33-1.72h-2.47s0-2.47,0-2.47l4.1.83c.68-1.97.69-5.79,3.29-5.78h-3.28c-.24-6.79,2.3-2.28,3.59-2.51l3.5-3.16c4.62,3.67,4.07-2.93,7.71-1.3l-.84,2.86c2.44,1.7,5.9.62,7.62,1.01,2.69.61,7.73,5.13,12.11,3.91-.97-3.86,3.83-3.11,2.68-.21-.58,1.48-2,.55-1.84,1.86,1.93,1.9,9.3-.46,9.83.06.28.28-.49,1.81.58,2.44,2.47,1.46,6.96,1.41,9.7,2.47l2.48-3.31c3.17,2.67-.52,2.3-1.22,4.1,4.05.78,5.47,2.13,9.41.01l2.62,4.04c1.78.61,3.76-.88,4.78-.64.85.2.93,1.83,1.91,2.34,2.14,1.12,9.96,3.29,10.46,0l1.65.02c.26,3.65,7.15,5.65,9.07,3.32,1.43-1.74-1.88-15.6,8.2-.86l.48-2.37c4.5-.95,4.45,1.77.75,3.62,9.31.93,17.72-4.46,25.49-8.64-2.12,2.12-4.42-3.27-1.23-3.27.86,0,1.73,2.78,1.23,3.27ZM375.24,567.73c.85-2.2,3.58-8.24,3.75-10.65.09-1.26-1.25-1.88-1.24-2.11.02-.46,5.53-4.36,4.86-7.43.25-2.85-1.57.45-2.03.43-1.21-.06-2.33-3.79.65-3.93.54-.03,1.82.94,2.22.66.9-.61,5.16-18.34,5.66-20.93-5.93-2.91-10.12-1.49-9.76-10.34l2.83.82-.37,1.64c.49.29,10.48-1.99,11.04-2.38.91-.63.3-2.38.48-2.55.39-.39,2.3.99,3.73.09,2.51-1.59,3.4-6.17,4.41-8.77-1.69-1.1-2.87-1.14-2.4-3.65,3.6.61,3.61-.51,4.01-3.8.15-1.2.18-2.4.09-3.6l-1.22,1.64-1.24-3.28h3.3c.99-6.11-2.13-50.01-5.54-51.01-12.71-2.16-24.58-.72-36.65,3.46-2.87.99-6.5,3.6-9.42,4.56-6.04,2-12.8,2.41-19.05,3.85-.91.21-1.66-.33-2.53-.36,1.6,8.55,4.23,16.87,6.38,25.28,2.28,8.94,5.2,18.06,7.37,27.18,3.39,14.23,3.28,24.98,2.65,39.23-1.09,24.77-3.46,50.61-8.37,74.7-1.38,6.76-6.09,14.38-2.28,21.38,1.05,1.94,11.28,4.91,13.81,5.31,7.62,1.19,23.65-.26,31.61-1.61,4.15-.71,7.52-3.27,12.13-2.26-1.27-1.68-1.56-2.01-.82-4.1,2.54-.77,2.15,3.29,2.9,3.31,2.27-.22,11.21-3.25,9.07-6.61-.14-.22-4.01-3.05-4.27-3.1-1.54-.29-3.88,1.51-5.53,1.23-1.32-.22-4.4-3.19-6.66-3.12-.43.01-.27,2.57-2.5,1.69-2.01-.85-.34-3.1-.44-3.25-.18-.26-5.33-1.56-6.17-1.67-2.44-.31.4,2.52-.39,4.1h-2.46s1.64-4.92,1.64-4.92c-5.75.34-4.54-1.46-7.35-3.76-3.4-2.78-2.96-1.68-5.78-5.52-.62-.84-2.13-.99-2.43-1.95-.49-1.61.8-2.92.78-3.95,0-.44-2.38-.04-1.69-3.35l2.33-.52c2.41-5.23-1.47-4.37-1.43-8.07l2.02-.88,2.04,1.65c-.04-7.92,6.24-14.2,3.32-22.17,4.12.26,3.84-3.85,4.91-6.62l-3.28.82c-.51-3.71,3.02-4.65,3.28-.82Z" fill="#FF4612"/><path d="M418.82,133.33c-1.93-1.6-10.42-8.56-11.1-9.88-.43-.83-.54-1.55-.41-2.46,1.18-.14,2.02-.84,3.3-.49,2.55.7,9.72,6.22,12.7,7.91,10.29,5.84,21.56,9.74,25.69,22.01,4.16,12.34,8.56,29.94,11.56,42.73.43,1.85-.51,7.16,1.39,7.48l15.8-5.46c8.09-4.93,16.85-7.54,25.53-10.66,1.13-.4,6.1-3.92,6.78-4.73,2.64-3.17,2.61-19.56,5.88-25.38.89-1.58,12.34-8.74,14.41-9.52,4.21-1.57,5.3,2.46,5.64,2.44,1.13-.05,3.09-1.92,5.11-2.3,4.57-.87,13.67,1.11,15.21,5.79.72,2.18.33,3.96.84,5.74.71,2.51,3.79,4.01,3.96,7.61.13,2.76-1.96,8.98-3.48,11.38-2.53,3.98-17.47,22.44-20.81,25.25-4.75,3.99-3.18,1.06-7.45,7.38-8.12,12.01-16.26,25.98-24.71,38.61-1.43,2.14-3.44,5.82-4.4,7.11-.24.32-4.38,4.35-5.34,5.34-19.31,19.74-45.28,43.74-75.63,36.91-1.23-.28-11.52-4.02-12.01-4.43-.55-.46-.84-.93-.85-1.67-.1-6.68,4.36-2.64,7.23-2.24,2.32.33,6.51.83,8.86,1,3.16.23,15.29-.64,17.74-2.02.97-.55-.69-2.94,1.17-3.72,3.6-1.5.79,4.21,3.27,3.27,6.04-3.48,13.41-6.4,18.32-11.2l-.63-3.6h2.75s.93,1.65.93,1.65l1.94-.96.12-3.99c4.63.99,4.3-1.59,6.54-3.74,1.96-1.88,2.63-2.72,4.16-4.48-.59.59-3.67-.3-3.28-2.04.67-3.05,4.87.46,3.28,2.04.6-.69,2.44-1.34,2.83-2.42.41-1.14-1.04-2.78.45-3.78,4.37.98,3.25-1.07,5.35-2.85,17.26-14.67,25.86-38.1,40.71-54.72-5.23-3.74,1.29-2.87,2.9-3.58,1.42-.63,9.63-7.94,9.95-9.15-.91-2.15-1.03-5.68-1.77-7.4-1.1-2.57-10.59-9.62-11.58-13.16-.99-3.51,3.26-7.7,2.96-11.53-.74-.74-8.57,3.19-9.42,4.97-2.85,6.01-2.78,18.22-3.14,24.95-2.44,4.18-7.77,5.11-11.46,7.37-18.42,11.29-38.22,16.83-56.77,27.09-2.36,1.3-15.52,10.58-16.54,10.4l-2.05-2.1c-.27-1.36,1.63-2.74,2.08-4.13.23-.71-.76-1.86-.19-2.76.64-1.01,2.25-.17,3.37-.73,2.73-1.38,11.1-8.42,11.88-11.18-4.99-.6-2.17-5,1.64-2.88.46-.55-1.69-8.41-2.22-9.67-.9-2.12-3.85-1.25-1.06-6.35-1.14-1.87-2.4-.39-4.11-.43l-.03-2.88,2.43-.45c.57-.58-2.57-15.12-3.14-15.93-.72-1.02-3.69.58-2.54-3.24.22-.72,2.03.16,1.68-3.38-1.41-14.23-12.7-18.86-22.25-26.77.34.34.8,4.34-2.05,3.28-3.17-1.18.7-4.63,2.05-3.28ZM553.56,169.42c.94-1.47-.99-10.41-1.78-12.4-2.86-7.22-10.81-7.76-14.74-1.27-4.1,6.77,2.05,9.36,3.86,15.45,2.43,2.51,9.51-1.53,12.66-1.78Z" fill="#FF4612"/><path d="M433.62,238.64c1.23.93-.04,4.52-2.04,4.11-2.9-.61-.29-5.86,2.04-4.11Z" fill="#FF4612"/><path d="M431.15,233.71c1.75,2.33-3.5,4.94-4.1,2.04-.42-2.01,3.18-3.28,4.1-2.04Z" fill="#FF4612"/><path d="M422.94,267.43c-1.88-1.88,3.39-5.19,4.1-2.04.46,2.02-3.57,2.57-4.1,2.04Z" fill="#FF4612"/><path d="M464.87,243.59c1.59,2.69-3.63,4.32-4.11,2.04s3.47-3.12,4.11-2.04Z" fill="#FF4612"/><path d="M274.53,210.67c2.23-.5,2.81,3.65.8,4.11-2.23.5-2.81-3.65-.8-4.11Z" fill="#FF4612"/><path d="M245.33,212.32c.81-1.07,3.53-.25,4.09,1.23-1.87,3.9-5.54.68-4.09-1.23Z" fill="#FF4612"/><path d="M276.58,219.71v-3.28c1.72-.1,3.08-.31,4.09,1.23-1.13,1.4-2.18,2.39-4.09,2.05Z" fill="#FF4612"/><path d="M415.13,169.54c2.8-.75,3.78,2.7,1.63,3.27-2.8.75-3.78-2.7-1.63-3.27Z" fill="#FF4612"/><path d="M300.02,218.08c2.23-.5,2.81,3.65.8,4.11-2.23.5-2.81-3.65-.8-4.11Z" fill="#FF4612"/><path d="M286.86,168.72c2.8-.75,3.78,2.7,1.63,3.27-2.8.75-3.78-2.7-1.63-3.27Z" fill="#FF4612"/><path d="M494.89,225.49c2.8-.75,3.78,2.7,1.63,3.27-2.8.75-3.78-2.7-1.63-3.27Z" fill="#FF4612"/><path d="M420.89,166.25c2.23-.5,2.81,3.65.8,4.11-2.23.5-2.81-3.65-.8-4.11Z" fill="#FF4612"/><path d="M296.31,230.41c-1.89-1.93,2.52-5.79,3.28-2.87.63,2.45-2.47,3.69-3.28,2.87Z" fill="#FF4612"/><path d="M488.72,232.05c-1.89-1.93,2.52-5.79,3.28-2.87.63,2.45-2.47,3.69-3.28,2.87Z" fill="#FF4612"/><path d="M327.97,231.24c2.8-.75,3.78,2.7,1.63,3.27-2.8.75-3.78-2.7-1.63-3.27Z" fill="#FF4612"/><path d="M417.6,161.31c2.8-.75,3.78,2.7,1.63,3.27-2.8.75-3.78-2.7-1.63-3.27Z" fill="#FF4612"/><path d="M408.55,144.86c2.8-.75,3.78,2.7,1.63,3.27-2.8.75-3.78-2.7-1.63-3.27Z" fill="#FF4612"/><path d="M441.02,202.44c-.81,1.07-3.53.25-4.09-1.23,1.87-3.9,5.54-.68,4.09,1.23Z" fill="#FF4612"/><path d="M426.64,177.77c2.8-.75,3.78,2.7,1.63,3.27-2.8.75-3.78-2.7-1.63-3.27Z" fill="#FF4612"/><path d="M347.71,241.94c2.8-.75,3.78,2.7,1.63,3.27-2.8.75-3.78-2.7-1.63-3.27Z" fill="#FF4612"/><path d="M395.4,158.84c2.23-.5,2.81,3.65.8,4.11-2.23.5-2.81-3.65-.8-4.11Z" fill="#FF4612"/><path d="M405.66,148.15c2.1,2.11-4.19,5.52-4.09,1.23.02-1.11,3.63-1.69,4.09-1.23Z" fill="#FF4612"/><path d="M457.07,246.05c2.23-.5,2.81,3.65.8,4.11-2.23.5-2.81-3.65-.8-4.11Z" fill="#FF4612"/><path d="M373.2,249.34c2.8-.75,3.78,2.7,1.63,3.27-2.8.75-3.78-2.7-1.63-3.27Z" fill="#FF4612"/><path d="M398.26,254.27c-.81,1.07-3.53.25-4.09-1.23,1.87-3.9,5.54-.68,4.09,1.23Z" fill="#FF4612"/><path d="M451.71,271.55c1.89,1.93-2.52,5.79-3.28,2.87-.63-2.45,2.47-3.69,3.28-2.87Z" fill="#FF4612"/><path d="M404.45,253.45c1.19-.26,2.04,1.39,2.85,2.05-3.81,4.67-5.49-1.47-2.85-2.05Z" fill="#FF4612"/><path d="M449.24,266.62c.82.99-2.58,5.12-4.1,2.04l1.23-2.11c.43-.79,2.78-.04,2.87.07Z" fill="#FF4612"/><path d="M421.71,180.23c2.23-.5,2.81,3.65.8,4.11-2.23.5-2.81-3.65-.8-4.11Z" fill="#FF4612"/><path d="M398.69,256.75c2.8-.75,3.78,2.7,1.63,3.27-2.8.75-3.78-2.7-1.63-3.27Z" fill="#FF4612"/><path d="M434.04,152.26c2.8-.75,3.78,2.7,1.63,3.27-2.8.75-3.78-2.7-1.63-3.27Z" fill="#FF4612"/><path d="M419.65,261.67c-.82-.99,2.58-5.12,4.1-2.04l-1.23,2.11c-.43.79-2.78.04-2.87-.07Z" fill="#FF4612"/><path d="M431.98,264.15c-.71.98-4.06.84-3.28-2.05s4.67.12,3.28,2.05Z" fill="#FF4612"/><path d="M445.95,260.86c1.79,1.79-4.48,6.74-3.28,0h3.28Z" fill="#FF4612"/><path d="M450.89,257.57v3.28s-3.28,0-3.28,0c-.37-2.49.71-3.66,3.28-3.28Z" fill="#FF4612"/><path d="M440.2,266.61c-.71.98-4.06.84-3.28-2.05s4.67.12,3.28,2.05Z" fill="#FF4612"/><path d="M384.3,260.85c-.73-.52-1.27-4.54,1.22-4.1,2.74,1.35.31,5.2-1.22,4.1Z" fill="#FF4612"/><polygon points="457.47 269.09 456.95 271.6 453.36 271.54 457.47 269.09" fill="#FF4612"/><path d="M384.29,251.81c1.79,1.79-4.48,6.74-3.28,0h3.28Z" fill="#FF4612"/><path d="M431.15,155.55c1.79,1.79-4.48,6.74-3.28,0h3.28Z" fill="#FF4612"/><path d="M418,278.95c-1.93,1.39-4.93-2.49-2.05-3.28,2.89-.79,3.02,2.57,2.05,3.28Z" fill="#FF4612"/><path d="M436.1,250.16l4.09,2.06c-1.41,3.01-4.9-.94-4.09-2.06Z" fill="#FF4612"/><path d="M409.78,278.95c.71-.98,4.06-.84,3.28,2.05-.79,2.88-4.67-.12-3.28-2.05Z" fill="#FF4612"/><path d="M481.31,251.8c-3.76.23-4.27-1.92-1.23-4.09,1.54,1.01,1.33,2.37,1.23,4.09Z" fill="#FF4612"/><path d="M411.42,158.84v3.28c-4.31.36-5.06-4.44,0-3.28Z" fill="#FF4612"/><path d="M454.59,240.3c2.4,0,1.84,4.68-.81,4.09-2.47-.55-.16-4.1.81-4.09Z" fill="#FF4612"/><path d="M439.38,236.17c1.39,1.93-2.49,4.93-3.28,2.05-.79-2.89,2.57-3.03,3.28-2.05Z" fill="#FF4612"/><path d="M317.29,144.85c2.97-.67,1.72,4.1-.01,4.09-1.88,0-2.28-3.57.01-4.09Z" fill="#FF4612"/><path d="M325.08,234.53c1.79,1.79-4.48,6.74-3.28,0h3.28Z" fill="#FF4612"/><path d="M492,233.71c1.93-1.39,4.93,2.49,2.05,3.28s-3.02-2.57-2.05-3.28Z" fill="#FF4612"/><path d="M299.6,232.06c1.93-1.39,4.93,2.49,2.05,3.28-2.89.79-3.02-2.57-2.05-3.28Z" fill="#FF4612"/><path d="M265.88,230.42c2.02,1.86-1.49,5.28-3.28,3.28-.84-.94,2.36-4.12,3.28-3.28Z" fill="#FF4612"/><path d="M402.38,145.67c-1.93,1.39-4.93-2.49-2.05-3.28s3.02,2.57,2.05,3.28Z" fill="#FF4612"/><path d="M302.06,223.84c1.93-1.39,4.93,2.49,2.05,3.28s-3.02-2.57-2.05-3.28Z" fill="#FF4612"/><path d="M272.87,218.91c2.4,0,1.84,4.68-.81,4.09-2.47-.55-.16-4.1.81-4.09Z" fill="#FF4612"/><path d="M376.89,140.74c.71-.98,4.06-.84,3.28,2.05-.79,2.88-4.67-.12-3.28-2.05Z" fill="#FF4612"/><path d="M489.95,213.98c2.4,0,1.84,4.68-.81,4.09-2.47-.55-.16-4.1.81-4.09Z" fill="#FF4612"/><path d="M268.35,213.96c1.93-1.39,4.93,2.49,2.05,3.28s-3.02-2.57-2.05-3.28Z" fill="#FF4612"/><path d="M438.55,208.2c1.79,1.79-4.48,6.74-3.28,0h3.28Z" fill="#FF4612"/><path d="M532.29,185.17v3.28s-3.28,0-3.28,0c-.37-2.49.71-3.66,3.28-3.28Z" fill="#FF4612"/><path d="M449.24,280.6c1.39,1.93-2.49,4.93-3.28,2.05s2.57-3.03,3.28-2.05Z" fill="#FF4612"/><path d="M431.16,255.91v-3.28c4.34-.39,4.38,3.66,0,3.28Z" fill="#FF4612"/><path d="M421.29,281.43c1.35,1.35-2.1,5.22-3.28,2.04-1.05-2.84,2.92-2.4,3.28-2.04Z" fill="#FF4612"/><path d="M442.67,176.94v3.28c-4.34.39-4.38-3.66,0-3.28Z" fill="#FF4612"/><path d="M426.22,185.99v3.28c-4.34.39-4.38-3.66,0-3.28Z" fill="#FF4612"/><path d="M431.98,191.74v-3.28c4.34-.39,4.38,3.66,0,3.28Z" fill="#FF4612"/><path d="M403.61,133.35c1.69,0,1.69,4.64-.81,4.09-2.46-.54-.16-4.09.81-4.09Z" fill="#FF4612"/><path d="M519.56,190.93c2.58-.59,2.71,4.2-.83,3.28-1.97-.51-.32-3.02.83-3.28Z" fill="#FF4612"/><path d="M437.73,194.22v3.28c-4.34.39-4.38-3.66,0-3.28Z" fill="#FF4612"/><path d="M515.85,194.22c.08.08.12,2.05-.08,2.38l-3.2.91v-3.28c.79.12,3.08-.2,3.28,0Z" fill="#FF4612"/><path d="M422.12,147.32v-3.28c4.34-.39,4.38,3.66,0,3.28Z" fill="#FF4612"/><path d="M517.1,199.15c2.96-.66,1.73,4.07-.01,4.09-1.3.02-1.87-3.68.01-4.09Z" fill="#FF4612"/><path d="M374.84,134.99c3.26-.88,3.07,2.77.8,3.28-1.93.43-2.82-2.74-.8-3.28Z" fill="#FF4612"/><path d="M435.26,202.45v3.28c-4.34.39-4.38-3.66,0-3.28Z" fill="#FF4612"/><path d="M443.49,204.91v3.28c-4.34.39-4.38-3.66,0-3.28Z" fill="#FF4612"/><path d="M424.18,93.85c2.58-.59,2.71,4.2-.83,3.28-1.97-.51-.32-3.02.83-3.28Z" fill="#FF4612"/><polygon points="420.46 97.14 420.08 99.62 417.18 100.42 417.57 97.94 420.46 97.14" fill="#FF4612"/><path d="M431.58,146.5c2.96-.66,1.73,4.07-.01,4.09-1.3.02-1.87-3.68.01-4.09Z" fill="#FF4612"/><path d="M327.55,150.61h-3.28c-.39-4.34,3.66-4.38,3.28,0Z" fill="#FF4612"/><path d="M502.69,209.03c1.44,2.07-4.01,3.54-4.09,1.23-.09-2.55,3.47-2.11,4.09-1.23Z" fill="#FF4612"/><path d="M254.37,209.03c1.35,1.35-2.1,5.22-3.28,2.04-1.05-2.84,2.92-2.4,3.28-2.04Z" fill="#FF4612"/><path d="M416.36,150.61v-3.28c4.34-.39,4.38,3.66,0,3.28Z" fill="#FF4612"/><path d="M429.51,213.96c-.9-1.06,2.22-5.65,3.25-2.01.78,2.76-2.35,3.07-3.25,2.01Z" fill="#FF4612"/><path d="M508.87,210.67c2.96-.66,1.73,4.07-.01,4.09-1.3.02-1.87-3.68.01-4.09Z" fill="#FF4612"/><path d="M388.4,151.43v-3.28c4.34-.39,4.38,3.66,0,3.28Z" fill="#FF4612"/><path d="M262.59,211.5c1.35,1.35-2.1,5.22-3.28,2.04-1.05-2.84,2.92-2.4,3.28-2.04Z" fill="#FF4612"/><path d="M390.87,143.2v-3.28c4.34-.39,4.38,3.66,0,3.28Z" fill="#FF4612"/><path d="M399.09,131.68v-3.28c4.34-.39,4.38,3.66,0,3.28Z" fill="#FF4612"/><path d="M425.39,172.01c.75,2.16.68,2.66-1.22,4.09-1.54-1.01-1.33-2.37-1.23-4.09h2.45Z" fill="#FF4612"/><path d="M505.16,213.96v3.28c-4.34.39-4.38-3.66,0-3.28Z" fill="#FF4612"/><path d="M441.02,278.14l-.83,3.28c-1.55.32-2.21-1.05-3.26-2.05,1.01-1.55,2.37-1.32,4.09-1.23Z" fill="#FF4612"/><path d="M437.73,272.38c1.93,2.69-4.39,4.76-3.28.41.34-1.34,2.95-.88,3.28-.41Z" fill="#FF4612"/><path d="M429.51,269.91c1.35,1.35-2.1,5.22-3.28,2.04-1.05-2.84,2.92-2.4,3.28-2.04Z" fill="#FF4612"/><path d="M415.53,273.19h-3.28c-.39-4.34,3.66-4.38,3.28,0Z" fill="#FF4612"/><path d="M406.09,139.1c2.96-.66,1.73,4.07-.01,4.09-1.3.02-1.87-3.68.01-4.09Z" fill="#FF4612"/><path d="M450.9,266.61v-3.28c4.34-.39,4.38,3.66,0,3.28Z" fill="#FF4612"/><path d="M385.93,151.44v3.28c-4.34.39-4.38-3.66,0-3.28Z" fill="#FF4612"/><path d="M430.33,219.72c1.35,1.35-2.1,5.22-3.28,2.04-1.05-2.84,2.92-2.4,3.28-2.04Z" fill="#FF4612"/><path d="M492.43,219.72c2.96-.66,1.73,4.07-.01,4.09-1.3.02-1.87-3.68.01-4.09Z" fill="#FF4612"/><path d="M473.09,263.32c-2.69,1.93-4.76-4.4-.41-3.28,1.34.34.88,2.95.41,3.28Z" fill="#FF4612"/><path d="M456.65,263.32v-3.28c4.34-.39,4.38,3.66,0,3.28Z" fill="#FF4612"/><path d="M408.13,153.08v3.28c-4.34.39-4.38-3.66,0-3.28Z" fill="#FF4612"/><path d="M394.15,153.91v3.28c-4.34.39-4.38-3.66,0-3.28Z" fill="#FF4612"/><path d="M296.3,221.37v3.28c-4.34.39-4.38-3.66,0-3.28Z" fill="#FF4612"/><path d="M456.64,255.1c1.35,1.35-2.1,5.22-3.28,2.04-1.05-2.84,2.92-2.4,3.28-2.04Z" fill="#FF4612"/><path d="M364.55,258.38h-3.28c-.39-4.34,3.66-4.38,3.28,0Z" fill="#FF4612"/><path d="M378.53,255.09c2.17,3.01-4.7,4.4-3.28.42.51-1.43,2.99-.82,3.28-.42Z" fill="#FF4612"/><path d="M356.33,255.91h-3.28c-.39-4.34,3.66-4.38,3.28,0Z" fill="#FF4612"/><path d="M413.89,158.83v-3.28c4.34-.39,4.38,3.66,0,3.28Z" fill="#FF4612"/><path d="M274.11,227.94v-3.28c4.34-.39,4.38,3.66,0,3.28Z" fill="#FF4612"/><path d="M399.92,159.66v-3.28c4.34-.39,4.38,3.66,0,3.28Z" fill="#FF4612"/><path d="M424.18,250.16c2.58-.59,2.71,4.2-.83,3.28-1.97-.51-.32-3.02.83-3.28Z" fill="#FF4612"/><path d="M310.29,229.59v-3.28c4.34-.39,4.38,3.66,0,3.28Z" fill="#FF4612"/><path d="M339.06,247.69v3.28c-4.34.39-4.38-3.66,0-3.28Z" fill="#FF4612"/><path d="M445.13,246.87c1.35,1.35-2.1,5.22-3.28,2.04-1.05-2.84,2.92-2.4,3.28-2.04Z" fill="#FF4612"/><path d="M255.62,227.95c2.96-.66,1.73,4.07-.01,4.09-1.3.02-1.87-3.68.01-4.09Z" fill="#FF4612"/><path d="M290.14,159.68c1.69,0,1.69,4.64-.81,4.09s-.16-4.09.81-4.09Z" fill="#FF4612"/><path d="M427.86,227.95v3.28c-4.34.39-4.38-3.66,0-3.28Z" fill="#FF4612"/><path d="M334.56,241.94c2.96-.66,1.73,4.07-.01,4.09-1.3.02-1.87-3.68.01-4.09Z" fill="#FF4612"/><path d="M321.79,228.77v3.28c-4.34.39-4.38-3.66,0-3.28Z" fill="#FF4612"/><path d="M313.57,240.29v3.28c-4.34.39-4.38-3.66,0-3.28Z" fill="#FF4612"/><path d="M414.71,164.6v1.22c-2.1,2.33-2.84,3.3-4.09.01l4.09-1.23Z" fill="#FF4612"/><path d="M480.5,242.75c-.92-1.06,2.49-5.06,4.09-1.23-.6,1.46-3.16,2.31-4.09,1.23Z" fill="#FF4612"/><path d="M382.65,140.73v-3.28c4.34-.39,4.38,3.66,0,3.28Z" fill="#FF4612"/><path d="M399.91,167.88c-3.01,2.18-4.4-4.7-.42-3.28,1.43.51.82,2.99.42,3.28Z" fill="#FF4612"/><path d="M484.21,231.24c1.44-.32,3.93,2.68,1.62,3.28-2.91.76-3.69-2.82-1.62-3.28Z" fill="#FF4612"/><path d="M425.41,167.06v-3.28c4.34-.39,4.38,3.66,0,3.28Z" fill="#FF4612"/><path d="M425.4,239.46h-3.28c-.39-4.34,3.66-4.38,3.28,0Z" fill="#FF4612"/><path d="M347.28,239.46h-3.28c-.39-4.34,3.66-4.38,3.28,0Z" fill="#FF4612"/><path d="M478.45,234.54c2.91-.76,3.69,2.82,1.62,3.28-1.44.32-3.93-2.68-1.62-3.28Z" fill="#FF4612"/><path d="M284.4,162.95c2.58-.59,2.71,4.2-.83,3.28-1.97-.51-.32-3.02.83-3.28Z" fill="#FF4612"/><path d="M285.62,236.17v-3.28c4.34-.39,4.38,3.66,0,3.28Z" fill="#FF4612"/><path d="M335.78,236.99v-3.28c4.34-.39,4.38,3.66,0,3.28Z" fill="#FF4612"/><path d="M271.64,236.17c-.6-.6.31-3.66,2.04-3.28,3.04.67-.45,4.87-2.04,3.28Z" fill="#FF4612"/><path d="M307.82,237.81c-.6-.6.31-3.66,2.04-3.28,3.04.67-.45,4.87-2.04,3.28Z" fill="#FF4612"/><path d="M466.5,234.53c.52.37.9,2.81-.41,3.28-3.65,1.3-2.42-5.3.41-3.28Z" fill="#FF4612"/><path d="M472.27,232.06c.84.85-.09,4.96-2.45,3.28-1.9-1.35.96-4.78,2.45-3.28Z" fill="#FF4612"/><path d="M279.87,236.17c.47-.65,3.77-.97,3.28,1.22-.74,3.31-4.9,1.01-3.28-1.22Z" fill="#FF4612"/><path d="M346.46,144.03c1.03.82.79,4.01-2.04,3.28-2.65-.69.97-4.13,2.04-3.28Z" fill="#FF4612"/><path d="M405.66,164.59c-1.59,1.59-5.08-2.61-2.04-3.28,1.73-.38,2.64,2.68,2.04,3.28Z" fill="#FF4612"/><path d="M453.35,235.35c.6.6-.31,3.66-2.04,3.28-3.04-.67.45-4.87,2.04-3.28Z" fill="#FF4612"/><path d="M458.29,232.06c1.03.82.79,4.01-2.04,3.28-2.65-.69.97-4.13,2.04-3.28Z" fill="#FF4612"/><path d="M428.7,185.98c-.6-.6.31-3.66,2.04-3.28,3.04.67-.45,4.87-2.04,3.28Z" fill="#FF4612"/><path d="M333.31,237c.6.6-.31,3.66-2.04,3.28-3.04-.67.45-4.87,2.04-3.28Z" fill="#FF4612"/><path d="M305.35,241.1c-1.59,1.59-5.08-2.61-2.04-3.28,1.73-.38,2.64,2.68,2.04,3.28Z" fill="#FF4612"/><path d="M354.69,138.27c1.59-1.59,5.08,2.61,2.04,3.28-1.73.38-2.64-2.68-2.04-3.28Z" fill="#FF4612"/><path d="M458.3,241.1c-.6-.6.31-3.66,2.04-3.28,3.04.67-.45,4.87-2.04,3.28Z" fill="#FF4612"/><path d="M443.49,194.21c-1.59,1.59-5.08-2.61-2.04-3.28,1.73-.38,2.64,2.68,2.04,3.28Z" fill="#FF4612"/><path d="M426.23,191.75c1.59-1.59,5.08,2.61,2.04,3.28-1.73.38-2.64-2.68-2.04-3.28Z" fill="#FF4612"/><path d="M433.62,163.77c-1.59,1.59-5.08-2.61-2.04-3.28,1.73-.38,2.64,2.68,2.04,3.28Z" fill="#FF4612"/><path d="M447.6,238.64v2.45c-4.21,1.88-5.19-3.69,0-2.45Z" fill="#FF4612"/><path d="M341.53,239.47v3.28c-4.5-.17-4.42-3.39,0-3.28Z" fill="#FF4612"/><path d="M500.22,230.42c1.03.82.79,4.01-2.04,3.28-2.65-.69.97-4.13,2.04-3.28Z" fill="#FF4612"/><path d="M279.86,230.42c.84.85-.09,4.96-2.45,3.28-1.9-1.35.96-4.78,2.45-3.28Z" fill="#FF4612"/><path d="M464.04,229.59c.6.6-.31,3.66-2.04,3.28-3.04-.67.45-4.87,2.04-3.28Z" fill="#FF4612"/><path d="M431.98,196.69c.97,3.56-2.99,5.96-2.9,1.64l2.9-1.64Z" fill="#FF4612"/><path d="M524.07,196.69c.6.6-.31,3.66-2.04,3.28-3.04-.67.45-4.87,2.04-3.28Z" fill="#FF4612"/><path d="M474.74,232.05c-.6-.6.31-3.66,2.04-3.28,3.04.67-.45,4.87-2.04,3.28Z" fill="#FF4612"/><path d="M439.38,244.4c-.6-.6.31-3.66,2.04-3.28,3.04.67-.45,4.87-2.04,3.28Z" fill="#FF4612"/><path d="M271.64,227.95c.6.6-.31,3.66-2.04,3.28-3.04-.67.45-4.87,2.04-3.28Z" fill="#FF4612"/><path d="M425.41,241.94c1.59-1.59,5.08,2.61,2.04,3.28-1.73.38-2.64-2.68-2.04-3.28Z" fill="#FF4612"/><path d="M319.34,246.04c-.6-.6.31-3.66,2.04-3.28,3.04.67-.45,4.87-2.04,3.28Z" fill="#FF4612"/><path d="M425.4,161.3c-1.59,1.59-5.08-2.61-2.04-3.28,1.73-.38,2.64,2.68,2.04,3.28Z" fill="#FF4612"/><path d="M475.56,246.04c-.6-.6.31-3.66,2.04-3.28,3.04.67-.45,4.87-2.04,3.28Z" fill="#FF4612"/><path d="M308.64,243.58c.31,1.58-1.09,2.28-2.06,3.28h-1.22s0-3.28,0-3.28h3.28Z" fill="#FF4612"/><path d="M450.06,243.58c.14.1,1.01,3.12.83,3.28h-3.28c-.67-1.6,1.19-4.18,2.45-3.28Z" fill="#FF4612"/><path d="M358.8,244.4c.6.6-.31,3.66-2.04,3.28-3.04-.67.45-4.87,2.04-3.28Z" fill="#FF4612"/><path d="M433.63,244.4c1.59-1.59,5.08,2.61,2.04,3.28-1.73.38-2.64-2.68-2.04-3.28Z" fill="#FF4612"/><path d="M330.84,248.51c-1.59,1.59-5.08-2.61-2.04-3.28,1.73-.38,2.64,2.68,2.04,3.28Z" fill="#FF4612"/><path d="M247.79,197.51c1.03.82.79,4.01-2.04,3.28-2.65-.69.97-4.13,2.04-3.28Z" fill="#FF4612"/><path d="M390.86,137.44c-1.59,1.59-5.08-2.61-2.04-3.28,1.73-.38,2.64,2.68,2.04,3.28Z" fill="#FF4612"/><path d="M483.79,248.51c-.6-.6.31-3.66,2.04-3.28,3.04.67-.45,4.87-2.04,3.28Z" fill="#FF4612"/><path d="M473.09,246.05v2.45c-4.21,1.88-5.19-3.69,0-2.45Z" fill="#FF4612"/><path d="M353.04,247.69c1.61,2.23-2.54,4.54-3.28,1.22-.49-2.19,2.81-1.88,3.28-1.22Z" fill="#FF4612"/><path d="M367.02,250.15c-1.59,1.59-5.08-2.61-2.04-3.28,1.73-.38,2.64,2.68,2.04,3.28Z" fill="#FF4612"/><path d="M431.15,250.16c-.47.65-3.77.97-3.28-1.22.74-3.31,4.9-1.01,3.28,1.22Z" fill="#FF4612"/><path d="M282.33,230.41c-.6-.6.31-3.66,2.04-3.28,3.04.67-.45,4.87-2.04,3.28Z" fill="#FF4612"/><path d="M368.66,132.51v2.45c-4.21,1.88-5.19-3.69,0-2.45Z" fill="#FF4612"/><path d="M403.2,248.52c.6.6-.31,3.66-2.04,3.28-3.04-.67.45-4.87,2.04-3.28Z" fill="#FF4612"/><path d="M360.03,249.35c2.02,0,2.02,4.08,0,4.08s-2.02-4.08,0-4.08Z" fill="#FF4612"/><path d="M436.91,169.53c-1.59,1.59-5.08-2.61-2.04-3.28,1.73-.38,2.64,2.68,2.04,3.28Z" fill="#FF4612"/><path d="M347.28,250.16c1.03.82.79,4.01-2.04,3.28-2.65-.69.97-4.13,2.04-3.28Z" fill="#FF4612"/><path d="M253.55,203.26c-.6-.6.31-3.66,2.04-3.28,3.04.67-.45,4.87-2.04,3.28Z" fill="#FF4612"/><path d="M260.13,225.48c.6-.6,3.66.31,3.28,2.04-.67,3.04-4.87-.45-3.28-2.04Z" fill="#FF4612"/><path d="M354.68,135.8c-.84.84-4.96-.09-3.28-2.45,1.35-1.9,4.78.96,3.28,2.45Z" fill="#FF4612"/><path d="M488.71,223.01c.6.6-.31,3.66-2.04,3.28-3.04-.67.45-4.87,2.04-3.28Z" fill="#FF4612"/><path d="M461.57,255.09h-2.45c-1.23-5.19,4.33-4.21,2.45,0Z" fill="#FF4612"/><path d="M324.26,142.39c.6.6-.31,3.66-2.04,3.28-3.04-.67.45-4.87,2.04-3.28Z" fill="#FF4612"/><path d="M434.45,183.51c-1.03-.82-.79-4.01,2.04-3.28,2.65.69-.97,4.13-2.04,3.28Z" fill="#FF4612"/><path d="M448.42,252.63v2.45c-4.21,1.88-5.19-3.69,0-2.45Z" fill="#FF4612"/><path d="M285.62,154.73c1.59-1.59,5.08,2.61,2.04,3.28-1.73.38-2.64-2.68-2.04-3.28Z" fill="#FF4612"/><path d="M510.1,205.73c-.6-.6.31-3.66,2.04-3.28,3.04.67-.45,4.87-2.04,3.28Z" fill="#FF4612"/><path d="M467.34,254.28c1.59-1.59,5.08,2.61,2.04,3.28-1.73.38-2.64-2.68-2.04-3.28Z" fill="#FF4612"/><path d="M424.58,222.19v3.28c-4.42.11-4.5-3.11,0-3.28Z" fill="#FF4612"/><path d="M439.38,258.38c-.6-.6.31-3.66,2.04-3.28,3.04.67-.45,4.87-2.04,3.28Z" fill="#FF4612"/><path d="M428.69,255.92c.6.6-.31,3.66-2.04,3.28-3.04-.67.45-4.87,2.04-3.28Z" fill="#FF4612"/><path d="M279.87,224.65c-.6-.6.31-3.66,2.04-3.28,3.04.67-.45,4.87-2.04,3.28Z" fill="#FF4612"/><path d="M477.21,220.55c1.59-1.59,5.08,2.61,2.04,3.28-1.73.38-2.64-2.68-2.04-3.28Z" fill="#FF4612"/><path d="M382.63,148.96h-2.45c-1.23-5.19,4.33-4.21,2.45,0Z" fill="#FF4612"/><path d="M464.87,260.85h-1.22s-2.05-2.05-2.05-2.05l2.04-2.04c1.55,1.01,1.32,2.37,1.23,4.09Z" fill="#FF4612"/><path d="M466.51,223.83c-.84.84-4.96-.09-3.28-2.45,1.35-1.9,4.78.96,3.28,2.45Z" fill="#FF4612"/><path d="M344,139.1v2.45c-4.21,1.88-5.19-3.69,0-2.45Z" fill="#FF4612"/><path d="M410.61,135.81c1.07-.85,4.69,2.59,2.04,3.28-2.83.74-3.07-2.46-2.04-3.28Z" fill="#FF4612"/><path d="M508.45,219.72c.31,1.58-1.09,2.28-2.06,3.28h-1.22s0-3.28,0-3.28h3.28Z" fill="#FF4612"/><path d="M260.12,219.72c.6.6-.31,3.66-2.04,3.28-3.04-.67.45-4.87,2.04-3.28Z" fill="#FF4612"/><path d="M379.36,134.97c-.6-.6.31-3.66,2.04-3.28,3.04.67-.45,4.87-2.04,3.28Z" fill="#FF4612"/><path d="M464.87,265.79c-.6-.6.31-3.66,2.04-3.28,3.04.67-.45,4.87-2.04,3.28Z" fill="#FF4612"/><path d="M288.08,218.9c.6.6-.31,3.66-2.04,3.28-3.04-.67.45-4.87,2.04-3.28Z" fill="#FF4612"/><path d="M393.33,125.93c.84.85-.09,4.96-2.45,3.28-1.9-1.35.96-4.78,2.45-3.28Z" fill="#FF4612"/><path d="M431.15,172c-1.59,1.59-5.08-2.61-2.04-3.28,1.73-.38,2.64,2.68,2.04,3.28Z" fill="#FF4612"/><path d="M399.91,153.9c-1.59,1.59-5.08-2.61-2.04-3.28,1.73-.38,2.64,2.68,2.04,3.28Z" fill="#FF4612"/><path d="M462.4,265.79c.6.6-.31,3.66-2.04,3.28-3.04-.67.45-4.87,2.04-3.28Z" fill="#FF4612"/><path d="M434.44,269.9h-2.45c-1.23-5.19,4.33-4.21,2.45,0Z" fill="#FF4612"/><path d="M307.8,153.88c-.08.1-1.95.38-2.44.84-2.81-6.19,4.48-3.52,2.44-.84Z" fill="#FF4612"/><path d="M482.96,220.54c-.6-.6.31-3.66,2.04-3.28,3.04.67-.45,4.87-2.04,3.28Z" fill="#FF4612"/><path d="M248.62,217.25c.6-.6,3.66.31,3.28,2.04-.67,3.04-4.87-.45-3.28-2.04Z" fill="#FF4612"/><path d="M427.86,149.79c.6.6-.31,3.66-2.04,3.28-3.04-.67.45-4.87,2.04-3.28Z" fill="#FF4612"/><path d="M423.75,275.66c-.84.84-4.96-.09-3.28-2.45,1.35-1.9,4.78.96,3.28,2.45Z" fill="#FF4612"/><path d="M414.72,108.65c-.6-.6.31-3.66,2.04-3.28,3.04.67-.45,4.87-2.04,3.28Z" fill="#FF4612"/><path d="M352.22,141.56c.6.6-.31,3.66-2.04,3.28-3.04-.67.45-4.87,2.04-3.28Z" fill="#FF4612"/><path d="M396.63,139.91c-.6-.6.31-3.66,2.04-3.28,3.04.67-.45,4.87-2.04,3.28Z" fill="#FF4612"/><path d="M407.32,134.15c-.6-.6.31-3.66,2.04-3.28,3.04.67-.45,4.87-2.04,3.28Z" fill="#FF4612"/><path d="M265.05,216.43c.14.1,1.01,3.12.83,3.28h-3.28c-.67-1.6,1.19-4.18,2.45-3.28Z" fill="#FF4612"/><path d="M293.84,218.89c-.84.84-4.96-.09-3.28-2.45,1.35-1.9,4.78.96,3.28,2.45Z" fill="#FF4612"/><path d="M431.98,283.89c-.6-.6.31-3.66,2.04-3.28,3.04.67-.45,4.87-2.04,3.28Z" fill="#FF4612"/><path d="M427.04,213.96c.6.6-.31,3.66-2.04,3.28-3.04-.67.45-4.87,2.04-3.28Z" fill="#FF4612"/><path d="M316.04,139.92c.6.6-.31,3.66-2.04,3.28-3.04-.67.45-4.87,2.04-3.28Z" fill="#FF4612"/><path d="M395.8,125.92c-.6-.6.31-3.66,2.04-3.28,3.04.67-.45,4.87-2.04,3.28Z" fill="#FF4612"/><path d="M274.93,177.76c-.6-.6.31-3.66,2.04-3.28,3.04.67-.45,4.87-2.04,3.28Z" fill="#FF4612"/><path d="M254.38,217.25c-.6-.6.31-3.66,2.04-3.28,3.04.67-.45,4.87-2.04,3.28Z" fill="#FF4612"/><path d="M493.65,214.78c-.6-.6.31-3.66,2.04-3.28,3.04.67-.45,4.87-2.04,3.28Z" fill="#FF4612"/><path d="M393.34,134.15v-2.45c4.31-1.82,4.49,2.86,0,2.45Z" fill="#FF4612"/><path d="M320.97,136.63v3.28c-1.51.19-2.4.04-3.27-1.23,1.05-1,1.72-2.37,3.27-2.05Z" fill="#FF4612"/><path d="M436.92,175.29v-3.28c1.51-.19,2.4-.04,3.27,1.23-1.05,1-1.72,2.37-3.27,2.05Z" fill="#FF4612"/><path d="M364.16,140.74c2.01-.44,2.74,2.85.8,3.28-2.01.44-2.74-2.85-.8-3.28Z" fill="#FF4612"/><path d="M311.53,148.15c2.01-.44,2.74,2.85.8,3.28s-2.74-2.85-.8-3.28Z" fill="#FF4612"/><rect x="296.31" y="148.97" width="3.28" height="2.46" fill="#FF4612"/><path d="M487.88,212.31h-2.45c-.42-4.47,4.27-4.34,2.45,0Z" fill="#FF4612"/><path d="M432.4,174.47c2.01-.44,2.74,2.85.8,3.28-2.01.44-2.74-2.85-.8-3.28Z" fill="#FF4612"/><path d="M422.11,139.1c.32,1.55-1.05,2.22-2.05,3.27-2.62-2.68-1.53-3.84,2.05-3.27Z" fill="#FF4612"/><path d="M334.96,144.85v-2.45c4.31-1.82,4.49,2.86,0,2.45Z" fill="#FF4612"/><path d="M427.04,280.59c-.41.51-2.8.92-3.28-.41-1.42-3.99,4.74-1.43,3.28.41Z" fill="#FF4612"/><path d="M454.18,280.59c-1.85,1.46-4.4-4.7-.41-3.28,1.33.47.93,2.87.41,3.28Z" fill="#FF4612"/><path d="M413.89,153.07c-1.43,1.43-4.37-1.77-2.46-3.28,1.31-1.04,3.39,2.35,2.46,3.28Z" fill="#FF4612"/><path d="M401.55,116.87l-3.28.83c-.41-2.64,1.42-4.6,3.28-2.04v1.21Z" fill="#FF4612"/><path d="M266.31,208.2c2.01-.44,2.74,2.85.8,3.28-2.01.44-2.74-2.85-.8-3.28Z" fill="#FF4612"/><path d="M431.98,278.13c-.94.94-4.32-1.14-3.28-2.46,1.51-1.91,4.71,1.03,3.28,2.46Z" fill="#FF4612"/><path d="M442.66,269.09c.51.41.92,2.8-.41,3.28-3.99,1.42-1.43-4.74.41-3.28Z" fill="#FF4612"/><path d="M245.32,209.84c-1.85,1.46-4.4-4.7-.41-3.28,1.33.47.93,2.87.41,3.28Z" fill="#FF4612"/><path d="M429.51,205.74c.93.94-1.14,4.32-2.46,3.28-1.91-1.51,1.03-4.71,2.46-3.28Z" fill="#FF4612"/><path d="M505.16,209.02c-.18-7.93,4.75-1.38,1.22,0h-1.22Z" fill="#FF4612"/><path d="M235.88,218.08c2.01-.44,2.74,2.85.8,3.28-2.01.44-2.74-2.85-.8-3.28Z" fill="#FF4612"/><path d="M414.31,141.56c2.01-.44,2.74,2.85.8,3.28-2.01.44-2.74-2.85-.8-3.28Z" fill="#FF4612"/><path d="M422.11,156.37h-1.22c-3.53-1.38,1.4-7.93,1.22,0Z" fill="#FF4612"/><path d="M422.11,92.19c-1.85,1.46-4.4-4.7-.41-3.28,1.33.47.93,2.87.41,3.28Z" fill="#FF4612"/><path d="M422.12,83.14v-2.45c4.31-1.82,4.49,2.86,0,2.45Z" fill="#FF4612"/><path d="M249.04,203.27c2.01-.44,2.74,2.85.8,3.28s-2.74-2.85-.8-3.28Z" fill="#FF4612"/><path d="M302.06,153.9l.83,3.28h-3.28c-.31-1.97.38-3.48,2.46-3.28Z" fill="#FF4612"/><path d="M390.47,254.28c2.01-.44,2.74,2.85.8,3.28s-2.74-2.85-.8-3.28Z" fill="#FF4612"/><path d="M502.69,225.47c-1.43,1.43-4.37-1.77-2.46-3.28,1.31-1.04,3.39,2.35,2.46,3.28Z" fill="#FF4612"/><path d="M327.98,139.1c2.01-.44,2.74,2.85.8,3.28-2.01.44-2.74-2.85-.8-3.28Z" fill="#FF4612"/><path d="M242.86,200.8c.6.6-.32,3.67-2.04,3.28-2.49-.56.3-5.01,2.04-3.28Z" fill="#FF4612"/><path d="M283.15,160.48c-.94.94-4.32-1.14-3.28-2.46,1.51-1.91,4.71,1.03,3.28,2.46Z" fill="#FF4612"/><path d="M278.64,166.25c2.01-.44,2.74,2.85.8,3.28-2.01.44-2.74-2.85-.8-3.28Z" fill="#FF4612"/><path d="M468.98,229.59c-1.85,1.46-4.4-4.7-.41-3.28,1.33.47.93,2.87.41,3.28Z" fill="#FF4612"/><path d="M406.91,245.23c2.01-.44,2.74,2.85.8,3.28-2.01.44-2.74-2.85-.8-3.28Z" fill="#FF4612"/><path d="M490.77,241.95l2.04,2.04c-2.58,2.82-5.75.37-2.04-2.04Z" fill="#FF4612"/><rect x="443.5" y="196.68" width="2.46" height="3.29" fill="#FF4612"/><path d="M446.78,232.88v-2.45c4.31-1.82,4.49,2.86,0,2.45Z" fill="#FF4612"/><path d="M327.55,242.75c-1.43,1.43-4.37-1.77-2.46-3.28,1.31-1.04,3.39,2.35,2.46,3.28Z" fill="#FF4612"/><path d="M291.37,238.64c1.43,1.43-1.77,4.37-3.28,2.46-1.04-1.31,2.34-3.39,3.28-2.46Z" fill="#FF4612"/><path d="M487.49,237c2.01-.44,2.74,2.85.8,3.28s-2.74-2.85-.8-3.28Z" fill="#FF4612"/><path d="M440.2,185.99c1.43,1.43-1.77,4.37-3.28,2.46-1.04-1.31,2.34-3.39,3.28-2.46Z" fill="#FF4612"/><path d="M316.04,232.06v3.28c-1.55.32-2.22-1.05-3.27-2.05.87-1.27,1.76-1.42,3.27-1.23Z" fill="#FF4612"/><path d="M537.22,181.88v3.28c-1.51.19-2.4.04-3.27-1.23,1.05-1,1.72-2.37,3.27-2.05Z" fill="#FF4612"/><path d="M360.44,144.03v3.28c-1.55.32-2.22-1.05-3.27-2.05.87-1.27,1.76-1.42,3.27-1.23Z" fill="#FF4612"/><path d="M371.96,146.49v-3.28c1.55-.32,2.22,1.05,3.27,2.05-.87,1.27-1.76,1.42-3.27,1.23Z" fill="#FF4612"/><path d="M295.09,235.35c2.01-.44,2.74,2.85.8,3.28-2.01.44-2.74-2.85-.8-3.28Z" fill="#FF4612"/><path d="M499.4,216.43c.51.41.92,2.8-.41,3.28-3.99,1.42-1.43-4.74.41-3.28Z" fill="#FF4612"/><path d="M338.25,136.62c-.69-.55-.94-3.75,1.22-3.28,2.54.56.27,4.46-1.22,3.28Z" fill="#FF4612"/><path d="M407.31,128.39c-2.13,2.13-4.41-3.26-1.23-3.27.85,0,1.74,2.76,1.23,3.27Z" fill="#FF4612"/><path d="M526.54,188.46c2.13,2.13-3.26,4.42-3.27,1.23,0-.85,2.76-1.74,3.27-1.23Z" fill="#FF4612"/><path d="M254.37,223.01v3.28s-1.22,0-1.22,0c-1.29-.87-1.43-1.76-1.24-3.28h2.46Z" fill="#FF4612"/><path d="M482.96,212.32v1.22s-2.05,2.05-2.05,2.05l-1.23-1.23c.06-1.92,1.64-2.3,3.28-2.04Z" fill="#FF4612"/><path d="M388.4,142.39v3.28s-2.46,0-2.46,0c-.19-1.52-.05-2.41,1.24-3.28h1.22Z" fill="#FF4612"/><path d="M510.09,199.97c-2.13,2.13-4.41-3.26-1.23-3.27.85,0,1.74,2.76,1.23,3.27Z" fill="#FF4612"/><path d="M395.39,144.87c1.55,0,1.55,4.08,0,4.08s-1.55-4.08,0-4.08Z" fill="#FF4612"/><path d="M474.73,223.01v3.28s-2.46,0-2.46,0c-.19-1.52-.05-2.41,1.24-3.28h1.22Z" fill="#FF4612"/><path d="M284.79,213.14v3.28s-2.46,0-2.46,0c-.19-1.52-.05-2.41,1.24-3.28h1.22Z" fill="#FF4612"/><path d="M268.35,222.19c.69.55.94,3.75-1.22,3.28-2.54-.56-.27-4.46,1.22-3.28Z" fill="#FF4612"/><path d="M405.67,169.53c-1.18-1.49,2.72-3.76,3.28-1.22.47,2.15-2.73,1.91-3.28,1.22Z" fill="#FF4612"/><path d="M371.13,137.45v3.28s-2.46,0-2.46,0c-.19-1.52-.05-2.41,1.24-3.28h1.22Z" fill="#FF4612"/><path d="M290.55,224.66v3.28s-1.22,0-1.22,0c-1.29-.87-1.43-1.76-1.24-3.28h2.46Z" fill="#FF4612"/><path d="M274.11,206.56l-2.05,2.44c-3.39-2.67-1.56-3.83,2.05-2.44Z" fill="#FF4612"/><path d="M482.95,229.59l-2.44-.84c-.23-1.49-.03-2.4,1.22-3.26,1.55,1.01,1.32,2.38,1.23,4.1Z" fill="#FF4612"/><path d="M305.36,232.05c-2.13-2.13,3.26-4.42,3.27-1.23,0,.85-2.76,1.74-3.27,1.23Z" fill="#FF4612"/><path d="M291.79,230.42c2.46-.64,3.6,1.94,1.63,2.45-2.46.64-3.6-1.94-1.63-2.45Z" fill="#FF4612"/><path d="M362.91,134.98v3.28s-2.46,0-2.46,0c-.19-1.52-.05-2.41,1.24-3.28h1.22Z" fill="#FF4612"/><path d="M475.56,237.82v1.22c-.87,1.29-1.77,1.43-3.28,1.24v-2.46s3.28,0,3.28,0Z" fill="#FF4612"/><path d="M505.16,200.8v1.22c-.87,1.29-1.77,1.43-3.28,1.24v-2.46s3.28,0,3.28,0Z" fill="#FF4612"/><path d="M436.09,74.1c.19,1.52.05,2.41-1.24,3.28h-1.22s0-3.28,0-3.28h2.46Z" fill="#FF4612"/><path d="M355.51,241.93h-3.28s0-2.46,0-2.46c1.52-.19,2.41-.05,3.28,1.24v1.22Z" fill="#FF4612"/><path d="M472.27,220.54c-.55.69-3.75.94-3.28-1.22.56-2.54,4.46-.27,3.28,1.22Z" fill="#FF4612"/><path d="M274.93,163.77c-.69-.55-.94-3.75,1.22-3.28,2.54.56.27,4.46-1.22,3.28Z" fill="#FF4612"/><path d="M469.8,240.29c.19,1.52.05,2.41-1.24,3.28h-1.22s0-3.28,0-3.28h2.46Z" fill="#FF4612"/><path d="M429.51,283.89c2.13,2.13-3.26,4.42-3.27,1.23,0-.85,2.76-1.74,3.27-1.23Z" fill="#FF4612"/><path d="M344.82,245.23v2.46c-1.52.19-2.41.05-3.28-1.24v-1.22s3.28,0,3.28,0Z" fill="#FF4612"/><path d="M439.38,160.48c-2.13,2.13-4.41-3.26-1.23-3.27.85,0,1.74,2.76,1.23,3.27Z" fill="#FF4612"/><path d="M467.33,248.52v3.28s-2.46,0-2.46,0c-.19-1.52-.05-2.41,1.24-3.28h1.22Z" fill="#FF4612"/><path d="M297.13,159.66h-3.28s0-2.46,0-2.46c1.52-.19,2.41-.05,3.28,1.24v1.22Z" fill="#FF4612"/><path d="M389.22,249.34v2.46c-1.52.19-2.41.05-3.28-1.24v-1.22s3.28,0,3.28,0Z" fill="#FF4612"/><path d="M459.93,274.02c.19,1.52.05,2.41-1.24,3.28h-1.22s0-3.28,0-3.28h2.46Z" fill="#FF4612"/><path d="M421.29,269.9h-3.28s0-2.46,0-2.46c1.52-.19,2.41-.05,3.28,1.24v1.22Z" fill="#FF4612"/><path d="M291.38,151.44c1.49-1.18,3.76,2.72,1.22,3.28-2.15.47-1.91-2.73-1.22-3.28Z" fill="#FF4612"/><path d="M433.62,83.15v2.46c-1.52.19-2.41.05-3.28-1.24v-1.22s3.28,0,3.28,0Z" fill="#FF4612"/><path d="M395.8,262.5h-3.28s0-2.46,0-2.46c1.52-.19,2.41-.05,3.28,1.24v1.22Z" fill="#FF4612"/><path d="M272.47,168.71c1.49-1.18,3.76,2.72,1.22,3.28-2.15.47-1.91-2.73-1.22-3.28Z" fill="#FF4612"/><path d="M436.91,258.39c2.13,2.13-3.26,4.42-3.27,1.23,0-.85,2.76-1.74,3.27-1.23Z" fill="#FF4612"/><path d="M453.35,249.34v3.28s-1.22,0-1.22,0c-1.29-.87-1.43-1.76-1.24-3.28h2.46Z" fill="#FF4612"/><path d="M370.31,255.09h-3.28s0-2.46,0-2.46c1.52-.19,2.41-.05,3.28,1.24v1.22Z" fill="#FF4612"/><path d="M427.86,85.62c1.08,1.08-1.43,4.88-2.45,2.04-.87-2.43,1.83-2.66,2.45-2.04Z" fill="#FF4612"/><path d="M475.56,254.27h-2.46c-.31-4.12,2.77-4.12,2.46,0Z" fill="#FF4612"/><path d="M372.77,260.85h-2.46c-.31-4.12,2.77-4.12,2.46,0Z" fill="#FF4612"/><path d="M445.95,274.84c1.08,1.08-1.43,4.88-2.45,2.04-.87-2.43,1.83-2.66,2.45-2.04Z" fill="#FF4612"/><path d="M285.61,149.79c0,3.23-3.26,3.28-3.28,0h3.28Z" fill="#FF4612"/><path d="M422.93,105.36h-2.46c-.31-4.12,2.77-4.12,2.46,0Z" fill="#FF4612"/><path d="M414.71,100.43v2.46c-4.11.31-4.11-2.77,0-2.46Z" fill="#FF4612"/><path d="M499.4,204.09v1.22c-3.95,3.71-4.98-1.51,0-1.22Z" fill="#FF4612"/><path d="M265.06,203.27v1.22c-3.95,3.71-4.98-1.51,0-1.22Z" fill="#FF4612"/><path d="M430.33,77.39c1.08,1.08-1.43,4.88-2.45,2.04-.87-2.43,1.83-2.66,2.45-2.04Z" fill="#FF4612"/><path d="M299.59,243.57h-2.46c-.31-4.12,2.77-4.12,2.46,0Z" fill="#FF4612"/><path d="M387.57,131.68h-2.46c-.31-4.12,2.77-4.12,2.46,0Z" fill="#FF4612"/><path d="M319.33,237.82v2.46c-4.11.31-4.11-2.77,0-2.46Z" fill="#FF4612"/><path d="M444.31,232.89c1.08,1.08-1.43,4.88-2.45,2.04-.87-2.43,1.83-2.66,2.45-2.04Z" fill="#FF4612"/><path d="M259.3,205.74v3.28c-3.27-.02-3.23-3.28,0-3.28Z" fill="#FF4612"/><path d="M280.69,174.46v-2.46c4.11-.31,4.11,2.77,0,2.46Z" fill="#FF4612"/><path d="M455.82,229.59h-3.28c.02-3.28,3.28-3.23,3.28,0Z" fill="#FF4612"/><path d="M420.46,175.3c1.08,1.08-1.43,4.88-2.45,2.04-.87-2.43,1.83-2.66,2.45-2.04Z" fill="#FF4612"/><path d="M241.63,214.8c.61,0,3.07,2.76.81,3.27s-2.42-3.29-.81-3.27Z" fill="#FF4612"/><path d="M303.31,145.68c2.8-.63,1.43,3.25-.01,3.27-1.15.01-1.77-2.87.01-3.27Z" fill="#FF4612"/><path d="M332.48,144.86c1.08,1.08-1.43,4.88-2.45,2.04-.87-2.43,1.83-2.66,2.45-2.04Z" fill="#FF4612"/><path d="M279.04,210.66v-2.46c4.11-.31,4.11,2.77,0,2.46Z" fill="#FF4612"/><path d="M428.69,99.61c1.08,1.08-1.43,4.88-2.45,2.04-.87-2.43,1.83-2.66,2.45-2.04Z" fill="#FF4612"/><path d="M431.15,91.38c1.3,1.3-1.15,3.76-2.46,2.46-1.3-1.3,1.15-3.76,2.46-2.46Z" fill="#FF4612"/><path d="M394.97,246.87c1.57,1.46-3.29,3.68-3.27,1.23,0-.85,2.72-1.74,3.27-1.23Z" fill="#FF4612"/><path d="M348.93,135.81c.51.55-.38,3.26-1.23,3.27-2.45.02-.23-4.84,1.23-3.27Z" fill="#FF4612"/><path d="M371.14,130.05c.55-.51,3.26.38,3.27,1.23.02,2.45-4.84.23-3.27-1.23Z" fill="#FF4612"/><path d="M474.74,218.07c-.51-.55.38-3.26,1.23-3.27,2.45-.02.23,4.84-1.23,3.27Z" fill="#FF4612"/><path d="M334.95,136.63c1.3,1.3-1.15,3.76-2.46,2.46s1.15-3.76,2.46-2.46Z" fill="#FF4612"/><path d="M326.73,134.16c1.3,1.3-1.15,3.76-2.46,2.46-1.3-1.3,1.15-3.76,2.46-2.46Z" fill="#FF4612"/><path d="M427.05,142.39c.55-.51,3.26.38,3.27,1.23.02,2.45-4.84.23-3.27-1.23Z" fill="#FF4612"/><path d="M493.64,206.56c1.3,1.3-1.15,3.76-2.46,2.46s1.15-3.76,2.46-2.46Z" fill="#FF4612"/><path d="M310.28,143.21c1.57,1.46-3.29,3.68-3.27,1.23,0-.85,2.72-1.74,3.27-1.23Z" fill="#FF4612"/><path d="M395.8,117.71c1.3,1.3-1.15,3.76-2.46,2.46-1.3-1.3,1.15-3.76,2.46-2.46Z" fill="#FF4612"/><path d="M239.57,212.31h-2.46s.83-3.29.83-3.29c1.63.44,1.84,1.75,1.63,3.29Z" fill="#FF4612"/><path d="M529.83,181.06c.69.86-4.46,3.82-3.28-.83l3.28.83Z" fill="#FF4612"/><path d="M515.85,208.2c1.3,1.3-1.15,3.76-2.46,2.46-1.3-1.3,1.15-3.76,2.46-2.46Z" fill="#FF4612"/><path d="M404.02,120.17c1.3,1.3-1.15,3.76-2.46,2.46s1.15-3.76,2.46-2.46Z" fill="#FF4612"/><path d="M400.73,243.58c.41.37-.19,1.55-.81,2.06-2.9,2.36-1.82-4.38.81-2.06Z" fill="#FF4612"/><path d="M269.17,172.83v2.46c-1.02,1.1-5.08-3.33,0-2.46Z" fill="#FF4612"/><path d="M408.95,103.72v2.46s-2.46,0-2.46,0c-.27-1.5.91-2.72,2.46-2.46Z" fill="#FF4612"/><path d="M246.15,220.55v2.46c-1.02,1.1-5.08-3.33,0-2.46Z" fill="#FF4612"/><polygon points="270.42 163.78 272.45 165.01 271.22 166.24 269.19 165.01 270.42 163.78" fill="#FF4612"/><path d="M417.18,92.2v2.46s-2.46,0-2.46,0c-.27-1.5.91-2.72,2.46-2.46Z" fill="#FF4612"/><path d="M237.1,204.09v2.46s-2.46,0-2.46,0c-.27-1.5.91-2.72,2.46-2.46Z" fill="#FF4612"/><path d="M302.06,143.2h-2.46s0-2.46,0-2.46c1.5-.27,2.72.91,2.46,2.46Z" fill="#FF4612"/><path d="M312.75,134.98c.22.19.03,1.12-.4,1.65-3.03,3.73-2.56-4.29.4-1.65Z" fill="#FF4612"/><path d="M291.37,146.5c.41.37-.19,1.55-.81,2.06-2.9,2.36-1.82-4.38.81-2.06Z" fill="#FF4612"/><path d="M427.86,72.46c.22.19.03,1.12-.4,1.65-3.03,3.73-2.56-4.29.4-1.65Z" fill="#FF4612"/><path d="M403.21,243.57v-2.46c3.01.01,3.01,2.45,0,2.46Z" fill="#FF4612"/><path d="M279.86,154.72h-2.46c.01-3.02,2.45-3.02,2.46,0Z" fill="#FF4612"/><path d="M296.3,144.03c-.01,3.02-2.45,3.02-2.46,0h2.46Z" fill="#FF4612"/><path d="M234.63,214.78c-1.24,1.24-3.51-2.45-1.23-2.45.54,0,1.7,1.98,1.23,2.45Z" fill="#FF4612"/><rect x="304.53" y="137.45" width="1.64" height="2.46" fill="#FF4612"/><rect x="458.3" y="224.66" width="2.46" height="1.64" fill="#FF4612"/><rect x="339.89" y="253.45" width="2.46" height="1.64" fill="#FF4612"/><polygon points="310.29 223.82 307.82 223.83 307.82 222.19 309.04 222.19 310.29 223.82" fill="#FF4612"/><polygon points="419.64 83.97 419.64 85.19 418.01 86.44 418.01 83.97 419.64 83.97" fill="#FF4612"/><rect x="287.27" y="211.5" width="1.64" height="1.64" fill="#FF4612"/><rect x="388.4" y="121" width="1.64" height="1.64" fill="#FF4612"/><path d="M378.53,632.73c.53.53-.02,4.56-2.04,4.11-3.15-.71.16-5.99,2.04-4.11Z" fill="#FF4612"/><path d="M365.37,573.49c1.08,1.43-3.52,5.02-4.09,2s3.03-3.42,4.09-2Z" fill="#FF4612"/><path d="M371.96,475.58c-.53-.53.02-4.56,2.04-4.11,3.15.71-.16,5.99-2.04,4.11Z" fill="#FF4612"/><path d="M394.16,505.2c-1.88-1.88,3.39-5.19,4.1-2.04.46,2.02-3.57,2.57-4.1,2.04Z" fill="#FF4612"/><path d="M392.94,487.93c2.23-.5,2.81,3.65.8,4.11-2.23.5-2.81-3.65-.8-4.11Z" fill="#FF4612"/><path d="M374.02,556.21c2.23-.5,2.81,3.65.8,4.11-2.23.5-2.81-3.65-.8-4.11Z" fill="#FF4612"/><path d="M397.44,470.65c.46.46-.11,4.07-1.23,4.09-4.29.1-.88-6.19,1.23-4.09Z" fill="#FF4612"/><path d="M399.09,464.88c-.71.51-4.36.46-4.1-.4l2.86-2.88,1.24,3.28Z" fill="#FF4612"/><path d="M376.49,445.97c2.8-.75,3.78,2.7,1.63,3.27-2.8.75-3.78-2.7-1.63-3.27Z" fill="#FF4612"/><path d="M381.42,441.86c2.8-.75,3.78,2.7,1.63,3.27-2.8.75-3.78-2.7-1.63-3.27Z" fill="#FF4612"/><path d="M355.11,625.32c2.8-.75,3.78,2.7,1.63,3.27-2.8.75-3.78-2.7-1.63-3.27Z" fill="#FF4612"/><path d="M400.73,635.19c-1.92,1.45-5.13-2.22-1.23-4.09,1.48.56,2.31,3.28,1.23,4.09Z" fill="#FF4612"/><path d="M391.68,452.55c1.1,1.53-2.75,3.96-4.1,1.22-.44-2.49,3.58-1.94,4.1-1.22Z" fill="#FF4612"/><path d="M377.71,457.48c-.71.98-4.06.84-3.28-2.05.79-2.88,4.67.12,3.28,2.05Z" fill="#FF4612"/><path d="M391.69,457.48c.71-.98,4.06-.84,3.28,2.05-.79,2.88-4.67-.12-3.28-2.05Z" fill="#FF4612"/><path d="M394.15,465.71l-.39,2.48c-2.87,2.11-3.27.65-2.89-2.48h3.28Z" fill="#FF4612"/><path d="M401.55,478.88c-.71.98-4.06.84-3.28-2.05.79-2.88,4.67.12,3.28,2.05Z" fill="#FF4612"/><path d="M389.65,482.99c2.96-.68,1.72,4.1-.01,4.09-1.51,0-2.61-3.49.01-4.09Z" fill="#FF4612"/><path d="M390.87,496.98c1.93-1.39,4.93,2.49,2.05,3.28-2.89.79-3.02-2.57-2.05-3.28Z" fill="#FF4612"/><path d="M372.77,520.84l-.39,2.48c-2.87,2.11-3.27.65-2.89-2.48h3.28Z" fill="#FF4612"/><path d="M371.95,627.79c1.93-1.39,4.93,2.49,2.05,3.28-2.89.79-3.02-2.57-2.05-3.28Z" fill="#FF4612"/><path d="M380.18,629.43c1.72-.1,3.08-.31,4.09,1.23l-2.85,2.05c-1.28-.88-1.44-1.77-1.24-3.28Z" fill="#FF4612"/><path d="M392.51,443.5c1.35,1.35-2.1,5.22-3.28,2.04-1.05-2.84,2.92-2.4,3.28-2.04Z" fill="#FF4612"/><path d="M393.34,451.72v-3.28c4.34-.39,4.38,3.66,0,3.28Z" fill="#FF4612"/><path d="M382.64,450.91c1.35,1.35-2.1,5.22-3.28,2.04-1.05-2.84,2.92-2.4,3.28-2.04Z" fill="#FF4612"/><path d="M385.94,455.84c.4.29,1,2.77-.42,3.28-3.98,1.42-2.59-5.45.42-3.28Z" fill="#FF4612"/><polygon points="390.04 460.78 389.65 463.26 386.76 464.06 387.15 461.58 390.04 460.78" fill="#FF4612"/><path d="M376.06,463.25v3.28c-4.34.39-4.38-3.66,0-3.28Z" fill="#FF4612"/><path d="M402.37,467.36v3.28c-4.34.39-4.38-3.66,0-3.28Z" fill="#FF4612"/><path d="M380.17,471.46h-3.28c-.39-4.34,3.66-4.38,3.28,0Z" fill="#FF4612"/><path d="M379.36,640.94v-3.28c4.34-.39,4.38,3.66,0,3.28Z" fill="#FF4612"/><path d="M382.64,482.17c1.35,1.35-2.1,5.22-3.28,2.04-1.05-2.84,2.92-2.4,3.28-2.04Z" fill="#FF4612"/><path d="M399.91,484.64v3.28c-4.34.39-4.38-3.66,0-3.28Z" fill="#FF4612"/><path d="M389.23,633.54v-3.28c4.34-.39,4.38,3.66,0,3.28Z" fill="#FF4612"/><path d="M374.43,488.74v-3.28c4.34-.39,4.38,3.66,0,3.28Z" fill="#FF4612"/><path d="M390.04,492.04v3.28c-4.34.39-4.38-3.66,0-3.28Z" fill="#FF4612"/><path d="M398.26,496.97c-1.06.92-5.05-2.49-1.23-4.09,1.46.6,2.31,3.16,1.23,4.09Z" fill="#FF4612"/><polygon points="380.17 499.45 379.79 501.93 376.89 502.73 377.28 500.24 380.17 499.45" fill="#FF4612"/><path d="M350.17,629.44c3.26-.88,3.07,2.77.8,3.28-1.93.43-2.82-2.74-.8-3.28Z" fill="#FF4612"/><path d="M388.4,504.38c-.53.4-2.42-.99-3.29-.84l2.05-3.26c1.48.55,2.29,3.28,1.23,4.1Z" fill="#FF4612"/><path d="M378.53,511.78h-1.22c-2.33-2.1-3.3-2.84-.01-4.09l1.23,4.09Z" fill="#FF4612"/><path d="M371.13,622.85v3.28c-4.34.39-4.38-3.66,0-3.28Z" fill="#FF4612"/><path d="M387.57,512.6h-3.28c-.39-4.34,3.66-4.38,3.28,0Z" fill="#FF4612"/><path d="M359.62,608.04v3.28c-4.34.39-4.38-3.66,0-3.28Z" fill="#FF4612"/><path d="M361.26,602.28h-3.28c-.39-4.34,3.66-4.38,3.28,0Z" fill="#FF4612"/><path d="M367.02,586.65c.4.29,1,2.77-.42,3.28-3.98,1.42-2.59-5.45.42-3.28Z" fill="#FF4612"/><path d="M380.98,524.93l-2.44.84-.82-2.83,1.24-1.27c1.9.06,2.32,1.65,2.03,3.27Z" fill="#FF4612"/><path d="M384.28,526.6c1.33.95.97,5.5-2.46,3.29-.66-1.6,1.19-4.2,2.46-3.29Z" fill="#FF4612"/><path d="M383.46,535.64v3.28c-4.34.39-4.38-3.66,0-3.28Z" fill="#FF4612"/><path d="M378.53,542.22c-.29.4-2.77,1-3.28-.42-1.42-3.98,5.45-2.59,3.28.42Z" fill="#FF4612"/><path d="M366.62,547.17c3.26-.88,3.07,2.77.8,3.28-1.93.43-2.82-2.74-.8-3.28Z" fill="#FF4612"/><path d="M370.73,551.28c2.96-.66,1.73,4.07-.01,4.09-1.3.02-1.87-3.68.01-4.09Z" fill="#FF4612"/><path d="M366.19,566.9c-.81,1.03-4.01.79-3.28-2.04.69-2.65,4.12.97,3.28,2.04Z" fill="#FF4612"/><path d="M371.13,563.61c-.6.6-3.66-.31-3.28-2.04.67-3.04,4.87.45,3.28,2.04Z" fill="#FF4612"/><path d="M387.57,446.79c.6.6-.31,3.66-2.04,3.28-3.04-.67.45-4.87,2.04-3.28Z" fill="#FF4612"/><path d="M376.88,551.27h-2.45c-1.23-5.19,4.33-4.21,2.45,0Z" fill="#FF4612"/><path d="M365.38,580.89c-.6-.6.31-3.66,2.04-3.28,3.04.67-.45,4.87-2.04,3.28Z" fill="#FF4612"/><path d="M367.03,541.39c-1.03-.82-.79-4.01,2.04-3.28,2.65.69-.97,4.13-2.04,3.28Z" fill="#FF4612"/><path d="M374.41,534c.14.1,1.01,3.12.83,3.28h-3.28c-.67-1.6,1.19-4.18,2.45-3.28Z" fill="#FF4612"/><path d="M376.89,530.71c.6-.6,3.66.31,3.28,2.04-.67,3.04-4.87-.45-3.28-2.04Z" fill="#FF4612"/><path d="M371.13,532.35c-.6.6-3.66-.31-3.28-2.04.67-3.04,4.87.45,3.28,2.04Z" fill="#FF4612"/><path d="M368.66,453.37c.6.6-.31,3.66-2.04,3.28-3.04-.67.45-4.87,2.04-3.28Z" fill="#FF4612"/><path d="M362.08,593.23c-.6.6-3.66-.31-3.28-2.04.67-3.04,4.87.45,3.28,2.04Z" fill="#FF4612"/><path d="M360.45,612.98c.6-.6,3.66.31,3.28,2.04-.67,3.04-4.87-.45-3.28-2.04Z" fill="#FF4612"/><path d="M367.02,617.92c.6.6-.31,3.66-2.04,3.28-3.04-.67.45-4.87,2.04-3.28Z" fill="#FF4612"/><path d="M383.46,504.38c.6.6-.31,3.66-2.04,3.28-3.04-.67.45-4.87,2.04-3.28Z" fill="#FF4612"/><path d="M369.49,461.59c-.6-.6.31-3.66,2.04-3.28,3.04.67-.45,4.87-2.04,3.28Z" fill="#FF4612"/><path d="M385.11,467.35c-.84.84-4.96-.09-3.28-2.45,1.35-1.9,4.78.96,3.28,2.45Z" fill="#FF4612"/><path d="M385.93,487.1c.6.6-.31,3.66-2.04,3.28-3.04-.67.45-4.87,2.04-3.28Z" fill="#FF4612"/><path d="M385.94,473.11c-1.03-.82-.79-4.01,2.04-3.28,2.65.69-.97,4.13-2.04,3.28Z" fill="#FF4612"/><path d="M383.46,476.4h-2.45c-1.23-5.19,4.33-4.21,2.45,0Z" fill="#FF4612"/><path d="M392.51,474.76c.6.6-.31,3.66-2.04,3.28-3.04-.67.45-4.87,2.04-3.28Z" fill="#FF4612"/><path d="M384.29,478.05c.6-.6,3.66.31,3.28,2.04-.67,3.04-4.87-.45-3.28-2.04Z" fill="#FF4612"/><path d="M393.34,479.7c.6-.6,3.66.31,3.28,2.04-.67,3.04-4.87-.45-3.28-2.04Z" fill="#FF4612"/><path d="M387.57,634.37c.85,1.07-2.59,4.7-3.28,2.04-.74-2.84,2.46-3.07,3.28-2.04Z" fill="#FF4612"/><rect x="367.03" y="631.9" width="2.46" height="3.29" fill="#FF4612"/><path d="M378.53,477.23c.93.94-1.14,4.32-2.46,3.28-1.91-1.51,1.03-4.71,2.46-3.28Z" fill="#FF4612"/><path d="M362.51,635.19c2.01-.44,2.74,2.85.8,3.28s-2.74-2.85-.8-3.28Z" fill="#FF4612"/><path d="M373.6,636.84c1.43,1.43-1.77,4.37-3.28,2.46-1.04-1.31,2.34-3.39,3.28-2.46Z" fill="#FF4612"/><path d="M359.22,630.26c2.01-.44,2.74,2.85.8,3.28-2.01.44-2.74-2.85-.8-3.28Z" fill="#FF4612"/><path d="M385.11,496.15c.32,1.55-1.05,2.22-2.05,3.27-2.62-2.68-1.53-3.84,2.05-3.27Z" fill="#FF4612"/><path d="M381,462.41c-1.43,1.43-4.37-1.77-2.46-3.28,1.31-1.04,3.39,2.35,2.46,3.28Z" fill="#FF4612"/><path d="M366.2,626.97c.32,1.55-1.05,2.22-2.05,3.27-2.62-2.68-1.53-3.84,2.05-3.27Z" fill="#FF4612"/><path d="M392.51,506.03c1.43,1.43-1.77,4.37-3.28,2.46-1.04-1.31,2.34-3.39,3.28-2.46Z" fill="#FF4612"/><path d="M371.56,511.79c2.01-.44,2.74,2.85.8,3.28-2.01.44-2.74-2.85-.8-3.28Z" fill="#FF4612"/><path d="M376.06,525.77c.93.94-1.14,4.32-2.46,3.28-1.91-1.51,1.03-4.71,2.46-3.28Z" fill="#FF4612"/><path d="M363.73,581.72c.6.6-.32,3.67-2.04,3.28-2.49-.56.3-5.01,2.04-3.28Z" fill="#FF4612"/><path d="M371.56,543.05c2.01-.44,2.74,2.85.8,3.28s-2.74-2.85-.8-3.28Z" fill="#FF4612"/><rect x="364.56" y="555.39" width="2.46" height="3.29" fill="#FF4612"/><path d="M362.08,624.49c-2.13,2.13-4.41-3.26-1.23-3.27.85,0,1.74,2.76,1.23,3.27Z" fill="#FF4612"/><path d="M353.04,620.38v3.28s-2.46,0-2.46,0c-.19-1.52-.05-2.41,1.24-3.28h1.22Z" fill="#FF4612"/><path d="M367.03,447.61c-2.13-2.13,3.26-4.42,3.27-1.23,0,.85-2.76,1.74-3.27,1.23Z" fill="#FF4612"/><path d="M371.14,452.54c-2.13-2.13,3.26-4.42,3.27-1.23,0,.85-2.76,1.74-3.27,1.23Z" fill="#FF4612"/><path d="M355.51,619.55c-2.13-2.13,3.26-4.42,3.27-1.23,0,.85-2.76,1.74-3.27,1.23Z" fill="#FF4612"/><path d="M399.91,453.37c2.13,2.13-3.26,4.42-3.27,1.23,0-.85,2.76-1.74,3.27-1.23Z" fill="#FF4612"/><path d="M381,493.68c-2.13,2.13-4.41-3.26-1.23-3.27.85,0,1.74,2.76,1.23,3.27Z" fill="#FF4612"/><path d="M374.43,494.51c1.49-1.18,3.76,2.72,1.22,3.28-2.15.47-1.91-2.73-1.22-3.28Z" fill="#FF4612"/><path d="M376.88,516.72v3.28s-2.46,0-2.46,0c-.19-1.52-.05-2.41,1.24-3.28h1.22Z" fill="#FF4612"/><path d="M397.44,440.21v2.46c-4.11.31-4.11-2.77,0-2.46Z" fill="#FF4612"/><path d="M369.48,569.38c1.08,1.08-1.43,4.88-2.45,2.04-.87-2.43,1.83-2.66,2.45-2.04Z" fill="#FF4612"/><path d="M371.13,469.82h-2.46c-.31-4.12,2.77-4.12,2.46,0Z" fill="#FF4612"/><path d="M353.05,636.83v-2.46c4.11-.31,4.11,2.77,0,2.46Z" fill="#FF4612"/><path d="M354.68,612.16c1.3,1.3-1.15,3.76-2.46,2.46s1.15-3.76,2.46-2.46Z" fill="#FF4612"/><path d="M356.33,603.11c.51.55-.38,3.26-1.23,3.27-2.45.02-.23-4.84,1.23-3.27Z" fill="#FF4612"/><path d="M371.96,441.86c.55-.51,3.26.38,3.27,1.23.02,2.45-4.84.23-3.27-1.23Z" fill="#FF4612"/><path d="M374.42,482.98h-2.46s0-2.46,0-2.46c1.5-.27,2.72.91,2.46,2.46Z" fill="#FF4612"/><path d="M371.96,506.02v-2.46c3.01.01,3.01,2.45,0,2.46Z" fill="#FF4612"/><rect x="385.94" y="439.39" width="2.46" height="1.64" fill="#FF4612"/><rect x="401.56" y="481.35" width="1.64" height="1.64" fill="#FF4612"/><path d="M230.53,431.15c-1.88-1.88,3.39-5.19,4.1-2.04.46,2.02-3.57,2.57-4.1,2.04Z" fill="#FF4612"/><path d="M212.35,445.06c-1,.76-4.13.53-3.19-1.97,1.2-3.19,5.76.02,3.19,1.97Z" fill="#FF4612"/><path d="M199.28,442.67l-2.79.77c-1.41-.71-1.48-1.75-1.31-3.23l3.29.4.81,2.06Z" fill="#FF4612"/><path d="M188.19,436.1c2.8-.75,3.78,2.7,1.63,3.27-2.8.75-3.78-2.7-1.63-3.27Z" fill="#FF4612"/><path d="M214.51,433.63c2.23-.5,2.81,3.65.8,4.11-2.23.5-2.81-3.65-.8-4.11Z" fill="#FF4612"/><path d="M228.88,432.8l-2.79.77c-1.41-.71-1.48-1.75-1.31-3.23l3.29.4.81,2.06Z" fill="#FF4612"/><path d="M166.81,430.34c2.8-.75,3.78,2.7,1.63,3.27-2.8.75-3.78-2.7-1.63-3.27Z" fill="#FF4612"/><path d="M198.06,426.23c2.8-.75,3.78,2.7,1.63,3.27-2.8.75-3.78-2.7-1.63-3.27Z" fill="#FF4612"/><path d="M226.41,427.04c-.81,1.07-3.53.25-4.09-1.23,1.87-3.9,5.54-.68,4.09,1.23Z" fill="#FF4612"/><path d="M200.93,418.82c.81-1.07,3.53-.25,4.09,1.23-1.87,3.9-5.54.68-4.09-1.23Z" fill="#FF4612"/><path d="M207.92,416.36c2.8-.75,3.78,2.7,1.63,3.27-2.8.75-3.78-2.7-1.63-3.27Z" fill="#FF4612"/><path d="M142.54,422.1c-.98-.71-.84-4.07,2.05-3.28s-.12,4.67-2.05,3.28Z" fill="#FF4612"/><path d="M167.21,424.58c.23,3.77-1.92,4.27-4.09,1.23,1.01-1.54,2.37-1.33,4.09-1.23Z" fill="#FF4612"/><path d="M188.59,433.62c-1.93,1.39-4.93-2.49-2.05-3.28s3.02,2.57,2.05,3.28Z" fill="#FF4612"/><path d="M216.96,439.4c2.4,0,1.84,4.68-.81,4.09-2.47-.55-.16-4.1.81-4.09Z" fill="#FF4612"/><path d="M77.59,440.21c1.93-1.39,4.93,2.49,2.05,3.28s-3.02-2.57-2.05-3.28Z" fill="#FF4612"/><path d="M177.49,439.4c1.69,0,1.69,4.64-.81,4.09s-.16-4.09.81-4.09Z" fill="#FF4612"/><path d="M82.52,449.25h-3.28c-.39-4.34,3.66-4.38,3.28,0Z" fill="#FF4612"/><path d="M73.48,451.72v-3.28c4.34-.39,4.38,3.66,0,3.28Z" fill="#FF4612"/><path d="M168.04,439.38v-3.28c4.34-.39,4.38,3.66,0,3.28Z" fill="#FF4612"/><path d="M157.34,434.45c1.35,1.35-2.1,5.22-3.28,2.04-1.05-2.84,2.92-2.4,3.28-2.04Z" fill="#FF4612"/><path d="M195.99,433.63c1.03,2.36.1,4.04-2.46,4.1l.4-3.29,2.05-.81Z" fill="#FF4612"/><path d="M78.41,454.2v3.28c-4.34.39-4.38-3.66,0-3.28Z" fill="#FF4612"/><path d="M208.32,430.34c1.35,1.35-2.1,5.22-3.28,2.04-1.05-2.84,2.92-2.4,3.28-2.04Z" fill="#FF4612"/><path d="M89.92,430.34v3.28c-4.34.39-4.38-3.66,0-3.28Z" fill="#FF4612"/><path d="M214.08,427.87v3.28c-4.34.39-4.38-3.66,0-3.28Z" fill="#FF4612"/><polygon points="175.43 431.15 171.33 431.15 171.33 429.93 173.38 427.88 175.43 429.93 175.43 431.15" fill="#FF4612"/><path d="M72.65,459.12h-3.28c-.39-4.34,3.66-4.38,3.28,0Z" fill="#FF4612"/><path d="M147.48,424.58c1.35,1.35-2.1,5.22-3.28,2.04-1.05-2.84,2.92-2.4,3.28-2.04Z" fill="#FF4612"/><path d="M113.76,422.93c1.35,1.35-2.1,5.22-3.28,2.04-1.05-2.84,2.92-2.4,3.28-2.04Z" fill="#FF4612"/><path d="M83.36,422.09l-.84-2.44,2.83-.82,1.27,1.24c-.06,1.9-1.65,2.32-3.27,2.03Z" fill="#FF4612"/><path d="M207.51,439.38c-1.03-.82-.79-4.01,2.04-3.28,2.65.69-.97,4.13-2.04,3.28Z" fill="#FF4612"/><path d="M75.13,437.73c-1.59-1.59,2.61-5.08,3.28-2.04.38,1.73-2.68,2.64-3.28,2.04Z" fill="#FF4612"/><path d="M177.08,436.91c-.84.84-4.96-.09-3.28-2.45,1.35-1.9,4.78.96,3.28,2.45Z" fill="#FF4612"/><path d="M179.55,435.27c-1.59-1.59,2.61-5.08,3.28-2.04.38,1.73-2.68,2.64-3.28,2.04Z" fill="#FF4612"/><path d="M84.16,435.27h-3.28c.17-4.51,3.39-4.43,3.28,0Z" fill="#FF4612"/><path d="M149.12,430.34c.84.85-.09,4.96-2.45,3.28-1.9-1.35.96-4.78,2.45-3.28Z" fill="#FF4612"/><path d="M194.34,427.87v3.28c-4.42.11-4.5-3.11,0-3.28Z" fill="#FF4612"/><path d="M133.91,427.88c2.02,0,2.02,4.08,0,4.08s-2.02-4.08,0-4.08Z" fill="#FF4612"/><path d="M138.44,429.51c-1.59-1.59,2.61-5.08,3.28-2.04.38,1.73-2.68,2.64-3.28,2.04Z" fill="#FF4612"/><path d="M127.74,424.58l-.08,2.38-3.2.91.39-2.48c.71-1.05,1.69-.86,2.89-.8Z" fill="#FF4612"/><path d="M172.97,445.14c-.6.6-3.66-.31-3.28-2.04.67-3.04,4.87.45,3.28,2.04Z" fill="#FF4612"/><path d="M206.68,424.58c.85,1.07-2.59,4.7-3.28,2.04-.74-2.84,2.46-3.07,3.28-2.04Z" fill="#FF4612"/><path d="M212.43,422.11c1.59,1.59-2.61,5.08-3.28,2.04-.38-1.73,2.68-2.64,3.28-2.04Z" fill="#FF4612"/><path d="M189.42,425.39c-1.59-1.59,2.61-5.08,3.28-2.04.38,1.73-2.68,2.64-3.28,2.04Z" fill="#FF4612"/><path d="M218.19,420.46v2.45c-4.21,1.88-5.19-3.69,0-2.45Z" fill="#FF4612"/><path d="M119.52,420.46c1.59,1.59-2.61,5.08-3.28,2.04-.38-1.73,2.68-2.64,3.28-2.04Z" fill="#FF4612"/><path d="M105.54,422.1c-1.85,1.46-4.4-4.7-.41-3.28,1.33.47.93,2.87.41,3.28Z" fill="#FF4612"/><path d="M198.46,420.46v2.45c-4.31,1.82-4.49-2.86,0-2.45Z" fill="#FF4612"/><path d="M153.23,422.11c.6.6-.32,3.67-2.04,3.28-2.49-.56.3-5.01,2.04-3.28Z" fill="#FF4612"/><rect x="130.21" y="422.93" width="3.28" height="2.46" fill="#FF4612"/><path d="M86.23,424.58c2.01-.44,2.74,2.85.8,3.28s-2.74-2.85-.8-3.28Z" fill="#FF4612"/><path d="M80.47,426.24l2.04,2.04-2.04,2.04c-1.75-1.25-1.75-2.83,0-4.08Z" fill="#FF4612"/><polygon points="219.83 426.22 219.83 429.51 216.55 428.68 217.48 426.34 219.83 426.22" fill="#FF4612"/><path d="M141.33,431.98c2.01-.44,2.74,2.85.8,3.28-2.01.44-2.74-2.85-.8-3.28Z" fill="#FF4612"/><path d="M163.1,435.27c-.94.94-4.32-1.14-3.28-2.46,1.51-1.91,4.71,1.03,3.28,2.46Z" fill="#FF4612"/><path d="M200.53,431.98c2.01-.44,2.74,2.85.8,3.28-2.01.44-2.74-2.85-.8-3.28Z" fill="#FF4612"/><path d="M220.26,431.98c2.01-.44,2.74,2.85.8,3.28-2.01.44-2.74-2.85-.8-3.28Z" fill="#FF4612"/><path d="M72.66,442.68c1.49-1.18,3.76,2.72,1.22,3.28-2.15.47-1.91-2.73-1.22-3.28Z" fill="#FF4612"/><path d="M186.94,446.78h-3.28s0-2.46,0-2.46c1.52-.19,2.41-.05,3.28,1.24v1.22Z" fill="#FF4612"/><path d="M206.68,444.32v1.22c-.87,1.29-1.77,1.43-3.28,1.24v-2.46s3.28,0,3.28,0Z" fill="#FF4612"/><path d="M83.35,438.56c2.13-2.13,4.41,3.26,1.23,3.27-.85,0-1.74-2.76-1.23-3.27Z" fill="#FF4612"/><path d="M204.21,437.74v3.28s-2.46,0-2.46,0c-.19-1.52-.05-2.41,1.24-3.28h1.22Z" fill="#FF4612"/><path d="M184.48,441.02c-2.13,2.13-4.41-3.26-1.23-3.27.85,0,1.74,2.76,1.23,3.27Z" fill="#FF4612"/><path d="M154.88,431.15c-2.13,2.13-4.41-3.26-1.23-3.27.85,0,1.74,2.76,1.23,3.27Z" fill="#FF4612"/><path d="M180.37,426.22v3.28s-1.22,0-1.22,0c-1.29-.87-1.43-1.76-1.24-3.28h2.46Z" fill="#FF4612"/><path d="M160.63,426.22v3.28s-2.46,0-2.46,0c-.19-1.52-.05-2.41,1.24-3.28h1.22Z" fill="#FF4612"/><path d="M121.16,426.22v3.28s-2.46,0-2.46,0c-.19-1.52-.05-2.41,1.24-3.28h1.22Z" fill="#FF4612"/><path d="M186.94,424.58v1.22c-.87,1.29-1.77,1.43-3.28,1.24v-2.46s3.28,0,3.28,0Z" fill="#FF4612"/><path d="M74.3,462.42c2.13,2.13-3.26,4.42-3.27,1.23,0-.85,2.76-1.74,3.27-1.23Z" fill="#FF4612"/><path d="M139.25,423.75h-2.46s0-3.28,0-3.28h1.22c1.29.87,1.43,1.77,1.24,3.28Z" fill="#FF4612"/><path d="M125.27,418.82c2.13,2.13-3.26,4.42-3.27,1.23,0-.85,2.76-1.74,3.27-1.23Z" fill="#FF4612"/><path d="M112.12,417.17v1.22c-.87,1.29-1.77,1.43-3.28,1.24v-2.46s3.28,0,3.28,0Z" fill="#FF4612"/><path d="M92.38,419.63h-3.28c.02-3.28,3.28-3.23,3.28,0Z" fill="#FF4612"/><path d="M128.57,419.63v-2.46c4.11-.31,4.11,2.77,0,2.46Z" fill="#FF4612"/><path d="M97.33,423.75v-3.28c3.27.02,3.23,3.28,0,3.28Z" fill="#FF4612"/><path d="M158.99,421.29c0,3.23-3.26,3.28-3.28,0h3.28Z" fill="#FF4612"/><path d="M172.97,422.93v1.22c-3.95,3.71-4.98-1.51,0-1.22Z" fill="#FF4612"/><path d="M164.74,438.56c1.08,1.08-1.43,4.88-2.45,2.04-.87-2.43,1.83-2.66,2.45-2.04Z" fill="#FF4612"/><path d="M71.01,472.29c-.55.51-3.26-.38-3.27-1.23-.02-2.45,4.84-.23,3.27,1.23Z" fill="#FF4612"/><path d="M94.03,422.93c1.3,1.3-1.15,3.76-2.46,2.46s1.15-3.76,2.46-2.46Z" fill="#FF4612"/><rect x="115.42" y="415.53" width="1.64" height="1.64" fill="#FF4612"/><polygon points="97.32 416.36 95.69 417.99 95.68 416.35 97.32 416.36" fill="#FF4612"/><rect x="79.24" y="422.11" width=".81" height="1.64" fill="#FF4612"/><path d="M380.18,301.99c1.93-1.39,4.93,2.49,2.05,3.28s-3.02-2.57-2.05-3.28Z" fill="#FF4612"/><path d="M376.48,318.46c1.69,0,1.69,4.64-.81,4.09-2.46-.54-.16-4.09.81-4.09Z" fill="#FF4612"/><path d="M369.48,319.27c-.29.4-2.77,1-3.28-.42-1.42-3.98,5.45-2.59,3.28.42Z" fill="#FF4612"/><path d="M371.96,316.79v-3.28c4.34-.39,4.38,3.66,0,3.28Z" fill="#FF4612"/><path d="M366.2,311.04c.4.29,1,2.77-.42,3.28-3.98,1.42-2.59-5.45.42-3.28Z" fill="#FF4612"/><path d="M242.03,268.26h-2.45c-1.23-5.19,4.33-4.21,2.45,0Z" fill="#FF4612"/><path d="M239.58,282.24c-.6-.6.31-3.66,2.04-3.28,3.04.67-.45,4.87-2.04,3.28Z" fill="#FF4612"/><path d="M374.43,305.28c1.59-1.59,5.08,2.61,2.04,3.28-1.73.38-2.64-2.68-2.04-3.28Z" fill="#FF4612"/><path d="M357.98,316.79c-.6-.6.31-3.66,2.04-3.28,3.04.67-.45,4.87-2.04,3.28Z" fill="#FF4612"/><path d="M381.42,315.98c2.01-.44,2.74,2.85.8,3.28-2.01.44-2.74-2.85-.8-3.28Z" fill="#FF4612"/><path d="M369.91,307.75c2.01-.44,2.74,2.85.8,3.28s-2.74-2.85-.8-3.28Z" fill="#FF4612"/><path d="M385.1,297.05h-2.45c-.42-4.47,4.27-4.34,2.45,0Z" fill="#FF4612"/><path d="M240.39,288.01c1.46,1.85-4.69,4.41-3.28.41.47-1.33,2.87-.93,3.28-.41Z" fill="#FF4612"/><path d="M239.57,276.48c-.94.94-4.32-1.14-3.28-2.46,1.51-1.91,4.71,1.03,3.28,2.46Z" fill="#FF4612"/><path d="M377.72,313.5c-2.13-2.13,3.26-4.42,3.27-1.23,0,.85-2.76,1.74-3.27,1.23Z" fill="#FF4612"/><path d="M245.32,284.72v3.28s-1.22,0-1.22,0c-1.29-.87-1.43-1.76-1.24-3.28h2.46Z" fill="#FF4612"/><path d="M244.5,256.74c2.13,2.13-3.26,4.42-3.27,1.23,0-.85,2.76-1.74,3.27-1.23Z" fill="#FF4612"/><path d="M237.1,282.25v2.46c-4.11.31-4.11-2.77,0-2.46Z" fill="#FF4612"/></svg>